<?xml version="1.0" encoding="UTF-8" standalone="no" ?>
<!DOCTYPE svg PUBLIC "-//W3C//DTD SVG 1.1//EN" "http://www.w3.org/Graphics/SVG/1.1/DTD/svg11.dtd">
<svg xmlns="http://www.w3.org/2000/svg" xmlns:xlink="http://www.w3.org/1999/xlink" version="1.1" width="1080" height="1080" viewBox="0 0 1080 1080" xml:space="preserve">
<desc>Created with Fabric.js 5.2.4</desc>
<defs>
</defs>
<g transform="matrix(1 0 0 1 540 540)" id="ab92e2e0-4b26-4126-b4c3-f2b43b834200"  >
</g>
<g transform="matrix(1 0 0 1 540 540)" id="d2bc9935-9e0c-47e7-bb12-62d0846b0620"  >
<rect style="stroke: none; stroke-width: 1; stroke-dasharray: none; stroke-linecap: butt; stroke-dashoffset: 0; stroke-linejoin: miter; stroke-miterlimit: 4; fill: rgb(255,255,255); fill-rule: nonzero; opacity: 1; visibility: hidden;" vector-effect="non-scaling-stroke"  x="-540" y="-540" rx="0" ry="0" width="1080" height="1080" />
</g>
<g transform="matrix(-1 0 0 -1 540.01 540)"  >
<g style="" vector-effect="non-scaling-stroke"   >
		<g transform="matrix(1 0 0 1 -37.42 38.89)"  >
<path style="stroke: none; stroke-width: 1; stroke-dasharray: none; stroke-linecap: butt; stroke-dashoffset: 0; stroke-linejoin: miter; stroke-miterlimit: 4; fill: rgb(0,0,0); fill-rule: nonzero; opacity: 1;" vector-effect="non-scaling-stroke"  transform=" translate(-362.58, -338.89)" d="M 394.54 399.449 C 408.834 400.158 422.54 396.22200000000004 436.24 392.743 C 495.39300000000003 377.713 545.225 346.233 590.388 306.06399999999996 C 620.556 279.23199999999997 647.869 249.78599999999997 674.2 219.31999999999996 C 676.6 216.53899999999996 678.926 213.63599999999997 682.5450000000001 212.36599999999996 C 686.6110000000001 210.93799999999996 689.4810000000001 211.26599999999996 687.57 216.68099999999995 C 687.099 218.01499999999996 685.2470000000001 219.26399999999995 687.7800000000001 220.04199999999994 C 696.5160000000001 222.72399999999993 694.1480000000001 229.08699999999993 692.599 234.87499999999994 C 689.692 245.73899999999995 682.421 254.29999999999995 676.1990000000001 263.21099999999996 C 658.7690000000001 288.1809999999999 640.3800000000001 312.51699999999994 618.9580000000001 334.227 C 599.07 354.38199999999995 576.4830000000001 371.42699999999996 553.4320000000001 387.83299999999997 C 538.7610000000001 398.27399999999994 523.6900000000002 408.69399999999996 506.41900000000015 413.41299999999995 C 494.9470000000002 416.54699999999997 485.67900000000014 423.5559999999999 474.48100000000017 426.74399999999997 C 453.0210000000002 432.85499999999996 431.5810000000002 438.712 409.15200000000016 439.95599999999996 C 390.68900000000014 440.97999999999996 373.2520000000002 437.32099999999997 357.1970000000002 428.133 C 352.47983847069725 425.1988569815106 346.60918956358375 424.8135581300532 341.54900000000015 427.106 C 327.06800000000015 433.066 312.34900000000016 438.576 297.67400000000015 443.849 C 273.80400000000014 452.42699999999996 248.68200000000016 457.17699999999996 223.53900000000016 460.93 C 183.43900000000016 466.916 143.28200000000015 468.805 103.17300000000016 460.85 C 79.59800000000016 456.175 56.65800000000016 450.036 38.958000000000155 432.165 C 34.29800000000016 427.46000000000004 30.839000000000155 422.26500000000004 31.058000000000156 415.274 C 31.150000000000155 412.262 32.10500000000015 409.981 35.058000000000156 408.722 C 38.54500000000016 407.233 38.85200000000015 409.704 40.458000000000155 411.966 C 51.47500000000015 427.466 69.04300000000015 429.502 85.73300000000015 432.938 C 131.72700000000015 442.40999999999997 177.49100000000016 438.073 223.14100000000013 430.089 C 258.01776853837276 424.1082193466568 292.1482463874006 414.385391668643 324.94100000000014 401.089 C 327.5480000000002 400.024 331.14800000000014 400.116 328.97400000000016 395.189 C 321.40400000000017 378.02700000000004 322.62500000000017 360.476 328.7860000000002 343.389 C 338.29400000000015 317.02500000000003 353.7860000000002 295.65000000000003 382.2470000000002 287.48400000000004 C 397.5470000000002 283.09600000000006 407.7470000000002 288.06700000000006 416.7160000000002 301.09600000000006 C 439.5780000000002 334.29600000000005 427.0300000000002 370.03800000000007 400.96000000000015 391.43700000000007 Q 397.46000000000015 394.30800000000005 393.96000000000015 397.1740000000001 Q 394.243 398.313 394.54 399.449 Z M 405.899 327.589 C 406.014 318.814 400.355 319.916 395.158 320.664 C 377.586 323.192 368.553 336.734 360.041 349.764 C 353.841 359.264 348.585 369.916 348.441 381.911 C 348.385 386.484 349.60299999999995 390.121 355.522 386.854 C 371.68 377.938 386.209 367.096 396.692 351.62199999999996 C 401.682 344.252 405.148 336.169 405.9 327.589 Z M 460.948 396.063 C 438.755 401.253 416.948 407.15 394.448 409.825 C 418.027 411.765 439.745 404.577 460.948 396.063 Z M 331.27599999999995 405.721 L 275.39 425.746 C 295.0238400954064 422.305028340657 313.92482245728587 415.53245252924387 331.2759999999999 405.72100000000006 Z" stroke-linecap="round" />
</g>
		<g transform="matrix(1 0 0 1 271.85 -93.16)"  >
<path style="stroke: none; stroke-width: 1; stroke-dasharray: none; stroke-linecap: butt; stroke-dashoffset: 0; stroke-linejoin: miter; stroke-miterlimit: 4; fill: rgb(0,0,0); fill-rule: nonzero; opacity: 1;" vector-effect="non-scaling-stroke"  transform=" translate(-671.86, -206.84)" d="M 726.027 245.608 C 726.447 226.599 730.101 207.995 733.027 189.297 C 733.464 186.503 735.452 183.456 731.942 181.015 C 728.568 178.66899999999998 725.968 181.065 723.681 182.56799999999998 C 711.229 190.749 697.071 194.819 683.508 200.43499999999997 C 674.9350000000001 203.98499999999999 666.972 209.18599999999998 658.057 212.56399999999996 C 644.327 217.76399999999995 630.9730000000001 223.99899999999997 617.619 230.14099999999996 C 610.855 233.25299999999996 602.929 233.05899999999997 597.042 238.98699999999997 C 591.267 244.80299999999997 585.0110000000001 243.05199999999996 577.9010000000001 233.36199999999997 C 574.2740000000001 228.41999999999996 572.788 221.82799999999997 578.9620000000001 217.13499999999996 C 584.0403139875323 213.22156539426146 589.4888678714466 209.81370728208861 595.2300000000002 206.95999999999992 C 633.1120000000001 188.51399999999995 671.1430000000001 170.37299999999993 709.0470000000001 151.97299999999996 C 717.5580000000001 147.84099999999995 725.7930000000001 143.13299999999995 734.1010000000001 138.59199999999996 C 749.2010000000001 130.33899999999994 755.6010000000001 132.55199999999996 763.6690000000001 147.84299999999996 C 769.9320000000001 159.70799999999997 770.4350000000001 171.42099999999996 766.2210000000001 184.06599999999997 C 758.1120000000001 208.39899999999997 750.6970000000001 232.96599999999998 747.3010000000002 258.508 C 746.6210000000002 263.626 746.6600000000002 268.83599999999996 746.1830000000001 273.986 C 745.6300000000001 279.95 742.8310000000001 281.476 737.7080000000001 277.967 C 726.352 270.188 725.4 267.572 726.027 245.608 Z M 689.019 170.387 C 706.919 164.75 723.664 156.832 738.704 145.565 Z" stroke-linecap="round" />
</g>
</g>
</g>
</svg>