<?xml version="1.0" encoding="UTF-8"?><svg version="1.1" xmlns="http://www.w3.org/2000/svg" xmlns:xlink="http://www.w3.org/1999/xlink" x="0px" y="0px" viewBox="0 0 1600 1200" style="enable-background:new 0 0 1600 1200;" xml:space="preserve" width="1600px" height="1200px">

<g id="background">
	<g>
		<g>
			<path d="M557.2,503.9c5.6,10.2,5.7,22.3,0.3,32.6c-0.9,1.7,1.7,3.2,2.6,1.5c5.9-11.3,5.8-24.5-0.3-35.6
				C558.8,500.6,556.3,502.2,557.2,503.9L557.2,503.9z" style="fill:#161616;"/>
		</g>
	</g>
	<g>
		<g>
			<path d="M560.9,504.4c3.4-1.7,7.4-3.8,11.3-2.9c5.8,1.2,6,5.9,6.4,10.7c0.4,6.4,0.1,13.2-4.1,18.4
				c-1.2,1.5,0.9,3.6,2.1,2.1c5.8-7.1,6.5-18.2,4.3-26.9c-2.8-10.5-14.2-7.6-21.4-4C557.7,502.6,559.2,505.2,560.9,504.4
				L560.9,504.4z" style="fill:#161616;"/>
		</g>
	</g>
	<g>
		<g>
			<path d="M560.9,538.6c5.6,0.7,11.2-1.5,14.9-5.8c1.2-1.5-0.9-3.6-2.1-2.1c-3.2,3.8-7.8,5.6-12.8,5
				C559,535.4,559,538.4,560.9,538.6L560.9,538.6z" style="fill:#161616;"/>
		</g>
	</g>
	<g>
		<g>
			<path d="M560,372.2c1.3-2.5,4.9-9.3,8.9-3c0.7,1,0.7,3.8,0.9,4.8c0.4,2.1,1.1,4.3,2.6,5.9c5,5.2,8.5-3.3,13.7-0.5
				c6.6,3.5-2,10.9,3.4,15c1.3,1,2.8,1,4.3,0.4c1-0.4,1.8-1.3,2.8-1.8c3.7-1.6,5,1.7,5.3,4.6c0.1,0.9,0.6,1.4,1.5,1.5
				c1.1,0.1,2.1,0.2,3.2,0.3c1.9,0.2,1.9-2.8,0-3c-1.1-0.1-2.1-0.2-3.2-0.3c0.5,0.5,1,1,1.5,1.5c-0.3-2.7-0.8-6.2-3.3-7.8
				c-2.7-1.8-4.5-0.2-7,1c-1.2,0.6-2.2,2.6-3.9,0.2c-0.6-0.9,0.7-3.7,0.9-4.7c0.4-1.6,0.6-3,0.1-4.6c-0.8-2.5-3-4.6-5.5-5.4
				c-3.1-1.1-4.6,0.2-7.4,1c-2.5,0.7-5,0.5-5.9-2.2c-0.3-1-0.4-2.2-0.5-3.2c-0.3-1.6-0.5-3.3-1.3-4.8c-4.1-7.5-11.2-1.2-13.7,3.9
				C556.5,372.4,559.1,373.9,560,372.2L560,372.2z" style="fill:#161616;"/>
		</g>
	</g>
	<g>
		<g>
			<path d="M579.4,362.9c2.4-2.3,4.6-3.3,7.2-1.1c2.1,1.8,1.7,2.4,2.3,4.8c0.4,1.4,0.8,2.7,2,3.7
				c1.5,1.3,3.2,1.3,5.1,1.1c1.8-0.2,3.9-1.4,5.4,0.5c0.7,0.9,0.6,2.9,0.6,4c0.1,3,0.1,6.6,3.5,7.7c1,0.3,2.1-0.2,3,0.1
				c1.2-0.5,1.7-0.2,1.8,1.1c0.4,0.8,0.6,1.6,0.5,2.6c0.5,2.3,1.4,4,3.2,5.6c1.4,1.3,3.5-0.8,2.1-2.1c-3-2.8-0.9-6.7-3.4-9.2
				c-2.6-2.6-6.7,1.2-7.6-3.6c-0.7-3.7,0.7-8.7-4.2-10c-3.5-0.9-7.2,2.6-9.1-2.2c-0.8-2-0.5-4.2-1.9-6.1c-3.3-4.3-9.4-2.1-12.7,1
				C575.8,362.1,578,364.3,579.4,362.9L579.4,362.9z" style="fill:#161616;"/>
		</g>
	</g>
	<g>
		<g>
			<path d="M947.8,548.8c-3-0.3,1.5-6.2,2.4-6.7c2.4-1.3,5.2-0.6,7,1.3c3.9,4.2,0.6,10.4-4.7,11c-1.9,0.2-1.9,3.2,0,3
				c4.4-0.5,8.3-3.4,9.3-7.8c1-4.3-1.6-8.9-5.6-10.6c-3.9-1.6-8.2-0.1-10.5,3.4c-2,3-2.5,9,2.2,9.4C949.7,552,949.7,549,947.8,548.8
				L947.8,548.8z" style="fill:#161616;"/>
		</g>
	</g>
	<g>
		<g>
			<path d="M927.6,542.7c-2.1-1.9,0.4-5.7,2.8-3.6c2.5,2.1-0.9,5-3.2,3.3c-1.5-1.2-3,1.4-1.5,2.6
				c2.1,1.6,5.3,1.1,7.2-0.8c2.2-2.2,1.7-5.6-0.6-7.5c-2.3-1.9-5.6-1.8-7.4,0.7c-1.6,2.2-1.4,5.4,0.6,7.3
				C926.9,546.1,929.1,544,927.6,542.7L927.6,542.7z" style="fill:#161616;"/>
		</g>
	</g>
	<g>
		<g>
			<path d="M1274.5,414.2c1,18.6-8.3,36.5-24,46.5c-1.6,1-0.1,3.6,1.5,2.6c16.6-10.5,26.5-29.4,25.5-49.1
				C1277.4,412.3,1274.4,412.3,1274.5,414.2L1274.5,414.2z" style="fill:#161616;"/>
		</g>
	</g>
	<g>
		<g>
			<path d="M1276.5,416.4c9.6,7,5.7,19.7,0.4,28c-5,7.9-13.1,17.3-23.5,15.7c-1.9-0.3-2.7,2.6-0.8,2.9
				c12.5,1.8,22-8.7,27.8-18.5c5.8-9.7,8-23.1-2.4-30.7C1276.4,412.7,1274.9,415.3,1276.5,416.4L1276.5,416.4z" style="fill:#161616;"/>
		</g>
	</g>
	<g>
		<g>
			<path d="M434.7,327.4c6.3,10.4,10.1,21.9,11,34c0.2,1.9,3.2,1.9,3,0c-1-12.7-4.8-24.6-11.4-35.5
				C436.2,324.2,433.6,325.7,434.7,327.4L434.7,327.4z" style="fill:#E8E8E8;"/>
		</g>
	</g>
	<g>
		<g>
			<path d="M446.9,324.1c5.2,9.4,8.1,19.6,8.8,30.3c0.1,1.9,3.1,1.9,3,0c-0.7-11.2-3.8-21.9-9.2-31.8
				C448.6,320.9,446,322.4,446.9,324.1L446.9,324.1z" style="fill:#E8E8E8;"/>
		</g>
	</g>
	<g>
		<g>
			<path d="M433.9,346.6c8.7-5.7,18.5-8.7,29-8.9c1.9,0,1.9-3,0-3c-10.9,0.2-21.3,3.4-30.5,9.4
				C430.8,345.1,432.3,347.7,433.9,346.6L433.9,346.6z" style="fill:#E8E8E8;"/>
		</g>
	</g>
	<g>
		<g>
			<path d="M433.6,358.8c10.9-6.6,22.8-10.8,35.4-12.7c1.9-0.3,1.1-3.2-0.8-2.9c-12.9,1.9-25,6.3-36.1,13
				C430.5,357.2,432,359.8,433.6,358.8L433.6,358.8z" style="fill:#E8E8E8;"/>
		</g>
	</g>
	<g>
		<g>
			<path d="M1020.8,408.1c-4.6,2.3-6.4,8.3-2.5,12.2c2.1,2.1,3.9,1.5,6.4,2.3c1.6,0.5,3.4,1.5,3.1,3.1
				c-0.2,1.1-1.3,2-1.9,2.9c-1,1.3-2.2,2.8-2.6,4.4c-0.4,1.9,0.1,3.8,1.6,5.1c2.2,1.9,5.1,0.7,7.5,1.9c5,2.4-4.1,12.9,3.6,14.9
				c1.9,0.5,2.7-2.4,0.8-2.9c-3.2-0.8,0.8-6.9,1.1-8.8c0.2-1.7-0.1-3.4-1.4-4.6c-3.4-3.3-13.4,0.2-8.3-8.2c1.6-2.6,4.5-5.8,2.6-9.2
				c-0.6-1.1-1.6-1.7-2.8-2c-1.2-0.2-3.1,0-4.3-0.1c-5.3-0.3-5.9-6.2-1.4-8.5C1024,409.9,1022.5,407.3,1020.8,408.1L1020.8,408.1z" style="fill:#E8E8E8;"/>
		</g>
	</g>
	<g>
		<g>
			<path d="M1043,424.9c-3.3,1.3-3.4,4.9-1.4,7.6c1.3,1.9,3.4,2.3,5.1,3.6c4.2,3.1,0.5,5.7-0.2,9.3
				c-1.2,6.2,5.4,4.1,7.3,8.1c1.6,3.3,1,7,5.1,8.5c1.8,0.7,2.6-2.2,0.8-2.9c-2.9-1-2.5-6.5-4.1-8.7c-0.5-0.8-1.2-1.3-1.9-1.9
				c-0.4-0.3-1-0.2-1.3-0.4c-0.7-0.1-1.2-0.6-1.4-1.6c-1.4-0.9-1.6-1.8-0.4-2.8c0.9-2.8,2.7-4.5,0.8-7.4c-0.7-1.1-2-1.9-3.1-2.6
				c-0.9-0.6-7.4-4.6-4.4-5.8C1045.6,427.1,1044.8,424.2,1043,424.9L1043,424.9z" style="fill:#E8E8E8;"/>
		</g>
	</g>
	<g>
		<g>
			<path d="M1236.2,626.8c-7.3-5.2-6.1-16.1,1.8-20.1c6-3,14.2-0.2,17.3,5.7c3.1,5.9,0.4,14.2-5.5,17.3
				c-6.2,3.2-13.9,0.4-17.4-5.3c-1-1.6-3.6-0.1-2.6,1.5c4.5,7.5,14.9,10.8,22.6,5.8c7.3-4.8,9.6-15.9,4.2-22.9
				c-5.3-6.8-15.9-8.4-22.6-2.9c-7.8,6.3-7.2,17.8,0.8,23.6C1236.3,630.5,1237.8,627.9,1236.2,626.8L1236.2,626.8z" style="fill:#E8E8E8;"/>
		</g>
	</g>
	<g>
		<g>
			<path d="M546,655.6c1.1-3.6,2.7-4.6,4.6-2.9c0.5,0.2,1,0.5,1.4,0.7c0.7,0.2,1.6,0.4,2.3,0.3c1.5-0.2,2.7-1.1,3.4-2.3
				c2.5-4-0.3-7.9-2.8-11c-1.3-1.5-3.7-3.5-3.4-5.8c0.4-4.4,3-2.6,5.2-2.9c1.6-0.2,3-0.8,3.8-2.3c0.8-1.3,0.6-3,0.4-4.4
				c-0.1-0.8-0.4-1.7-0.4-2.5c-0.7-2.1,0.3-3.4,3-3.9c1.3,0.9,2.4,2,3.3,3.4c1.1,1.6,3.7,0.1,2.6-1.5c-2.7-3.8-10.7-9-12-1.1
				c-0.6,4,3.1,8.2-2.8,9.2c-2.9,0.5-4.9,0.5-5.8,3.9c-0.8,2.8,0.3,5.5,2,7.7c0.8,1,1.7,1.9,2.5,2.8c1,1,1.7,2.1,2.2,3.4
				c-1.2,1.2-2.3,2.4-3.5,3.6c-0.9,0.2-3.2-1.7-4.5-1.8c-5.8-0.4-8.9,7.4-3.1,9.9C546.3,658.9,547.8,656.3,546,655.6L546,655.6z" style="fill:#E8E8E8;"/>
		</g>
	</g>
	<g>
		<g>
			<path d="M570.4,651.3c-1.6-2.6-4.1-6.6-3-9.9c0.8-2.5,4.2-3.6,5.7-5.6c2.3-3.1,2-7.2-0.1-10.3
				c-0.4,0.8-0.9,1.5-1.3,2.3c5.7,0.4,10.5-3,12.2-8.5c0.6-1.9-2.3-2.6-2.9-0.8c-1.3,4.2-4.9,6.6-9.3,6.3c-1.1-0.1-1.9,1.3-1.3,2.3
				c1.3,1.9,1.8,4.6,0.5,6.7c-1.2,1.8-2.8,1.9-4.1,3.2c-1.2,1.2-2,2.4-2.3,4.2c-0.8,4.1,1.4,8.2,3.4,11.6
				C568.8,654.5,571.4,653,570.4,651.3L570.4,651.3z" style="fill:#E8E8E8;"/>
		</g>
	</g>
	<g>
		<g>
			<path d="M875.8,134.6c5.3,6.1,8.6,13.2,10,21.1c0.3,1.9,3.2,1.1,2.9-0.8c-1.5-8.4-5.2-16-10.8-22.5
				C876.6,131,874.5,133.1,875.8,134.6L875.8,134.6z" style="fill:#E8E8E8;"/>
		</g>
	</g>
	<g>
		<g>
			<path d="M878.4,134.9c3.4-3.1,17-15.3,22-11.8c2.5,1.8,4.7,5.9,6.3,8.6c2,3.4,3.6,7,4.9,10.7c0.6,1.8,3.5,1,2.9-0.8
				c-1.7-4.7-3.8-9.3-6.5-13.5c-1.7-2.7-4.3-7.3-7.4-8.6c-3.5-1.5-7.8,1.6-10.7,3.3c-4.9,2.8-9.4,6.2-13.6,10
				C874.9,134.1,877,136.2,878.4,134.9L878.4,134.9z" style="fill:#E8E8E8;"/>
		</g>
	</g>
	<g>
		<g>
			<path d="M889,157.6c7.8-6.6,16.3-12,25.7-16.1c1.8-0.8,0.2-3.4-1.5-2.6c-9.6,4.2-18.3,9.8-26.3,16.6
				C885.4,156.7,887.5,158.8,889,157.6L889,157.6z" style="fill:#E8E8E8;"/>
		</g>
	</g>
	<g>
		<g>
			<path d="M906.4,129.4c3.8-3.2,12.3-11.3,17-6c3.4,3.8,5.6,10,7.6,14.6c0.8,1.8,3.4,0.2,2.6-1.5
				c-1.9-4.3-3.9-8.4-6.3-12.4c-1.2-2.1-2.7-5.3-5.2-6.2c-2.9-1-6,1.1-8.3,2.5c-3.4,2-6.5,4.3-9.5,6.8
				C902.8,128.6,905,130.7,906.4,129.4L906.4,129.4z" style="fill:#E8E8E8;"/>
		</g>
	</g>
	<g>
		<g>
			<path d="M899,147.7c4.7,2.1,8.7,4.9,12.4,8.5c0.7,0.7,1.8,0.5,2.4-0.3c4.4-6.3,10.2-11.1,17.2-14.4
				c1.8-0.8,0.2-3.4-1.5-2.6c-7.5,3.5-13.6,8.7-18.3,15.4c0.8-0.1,1.6-0.2,2.4-0.3c-3.8-3.8-8.1-6.7-13-8.9
				C898.7,144.4,897.2,146.9,899,147.7L899,147.7z" style="fill:#E8E8E8;"/>
		</g>
	</g>
	<g>
		<g>
			<path d="M920.8,258.9c-0.2-1.1-0.5-2.2-0.7-3.3c0.9-0.9,1.8-1.7,2.9-2.3c0.6-0.4,1.3-0.8,1.9-1.3c1.2-1,2-2,2.6-3.4
				c0.7-1.8,0.5-3.5,0.3-5.4c-0.1-0.6-0.2-1.3-0.3-1.9c-0.1-0.7,0.3-8.8,3.5-6.2c1.5,1.2,3.6-0.9,2.1-2.1c-2.2-1.8-4.5-1.5-6.5,0.4
				c-3.4,3.3-1.8,7.2-1.6,11.2c0.3,6-7.5,6.3-8.2,11.8c-0.3,2.5,0.7,4.8,3.3,5.3C921.9,262.1,922.7,259.2,920.8,258.9L920.8,258.9z" style="fill:#161616;"/>
		</g>
	</g>
	<g>
		<g>
			<path d="M931.8,250.6c2.4,1.9,5.8,0.5,6.3-2.6c0.5-2.7-1.3-5.2-1.1-7.9c0.3-3.7,2.8-6.9,6.2-8.2
				c1.8-0.7,1-3.6-0.8-2.9c-3.3,1.2-5.9,3.4-7.3,6.7c-0.7,1.5-1.1,3.2-1.1,4.9c0,0.8,0.1,1.6,0.2,2.3c0,0,1.5,6.9-0.2,5.5
				C932.4,247.3,930.3,249.4,931.8,250.6L931.8,250.6z" style="fill:#161616;"/>
		</g>
	</g>
	<g>
		<g>
			<path d="M673.8,580.6c-1.8-1-2-3.3-0.7-4.8c1.3-1.5,3.7-2.1,5.6-1.8c1.6,0.3,3.4,1.1,4.1,2.7
				c0.8,1.8-0.4,4.9-2.8,4.6c-1.9-0.3-2.7,2.6-0.8,2.9c3.4,0.5,6.4-1.8,6.9-5.3c0.6-3.7-2.4-6.7-5.8-7.6c-3.5-1-7.9,0.1-10,3.3
				c-1.9,2.9-1.1,7,2.1,8.6C674,584.1,675.5,581.5,673.8,580.6L673.8,580.6z" style="fill:#161616;"/>
		</g>
	</g>
	<g>
		<g>
			<path d="M515.8,226.7c0.6-2,1.2-4.1,1.7-6.1c0.6,0.2,1.2,0.4,1.8,0.6c0.8,0.1,1.6,0.6,2.4,0.8
				c1.1,0.3,2.4,0.4,3.5,0.1c2.6-0.9,3.4-3.4,3.4-5.9c0-2.5-0.9-5.2,1.1-7.2c1.6-1.6,4.3-2.2,6.4-1.7c6.9,1.6,6.2,10.3,3.2,15
				c-1,1.6,1.6,3.1,2.6,1.5c3.3-5.3,4.1-13.3-1.3-17.6c-4-3.2-10.8-2.6-13.9,1.6c-2.1,2.8-0.7,5.3-1.3,8.5c-1,5.3-8.5,0.4-11.9,1.6
				c-6.4,2.3-4.5,10.4,1.2,11.9C516.8,230.1,517.6,227.2,515.8,226.7L515.8,226.7z" style="fill:#161616;"/>
		</g>
	</g>
	<g>
		<g>
			<path d="M1166.2,665.3c2.1-1.6,4.4-1.7,6.9-0.4c1.1,0.6,2.6-0.4,2.2-1.7c-0.9-1.8-0.7-3.4,0.8-4.8
				c0.7-3.1,2.3-3.3,4.7-0.7c0.7,1.4,2.7,0.6,2.8-0.8c0-1.3,0.1-2.7,0.3-4c0.3-3.2,2.4-4,6.1-2.5c0.8,1.8,3.3,0.2,2.6-1.5
				c-1.2-2.8-4.4-3.7-7.2-2.6c-4.2,1.7-4.7,6.7-4.8,10.6c0.9-0.3,1.9-0.5,2.8-0.8c-1.4-3-5-4.1-8-2.6c-3.8,2-4,6.7-3,10.4
				c0.7-0.6,1.5-1.1,2.2-1.7c-3.4-1.7-6.6-1.6-9.9,0.4C1163.1,663.7,1164.6,666.3,1166.2,665.3L1166.2,665.3z" style="fill:#EC615B;"/>
		</g>
	</g>
	<g>
		<g>
			<path d="M1088.5,251c-5.4,1.6-9.2,6.2-9.9,11.9c-0.7,5.4,2.5,12.1,8.5,12.7c4.4,0.4,8.8-4.6,6.1-8.7
				c-2.9-4.5-8.5-1.2-10.8,2c-6.5,9.3-0.7,27.5,12.7,23.2c3.7-1.2,8.3-5.7,6.2-10c-2.6-5.3-8.4,0.4-9.9,3.4
				c-3.1,6.2-3.9,15.1,2.5,19.5c5,3.4,11.9,1.2,13.5-4.7c0.4-1.3-1.5-2.7-2.5-1.5c-6.9,8.7-1.6,20.7,9.6,21.1c1.9,0.1,1.9-2.9,0-3
				c-8.4-0.3-12.8-9.3-7.5-15.9c-0.8-0.5-1.7-1-2.5-1.5c-1.5,5.7-8.5,4.8-11.2,0.6c-2.4-3.9-1.6-9.2,0.6-13.1c0.5-1,3.2-5.7,4.8-2.7
				c0.8,1.6-2.2,3.9-3.2,4.5c-3.1,1.7-7.2,1.2-9.6-1.4c-2.5-2.6-3.3-6.6-3-10.1c0.2-1.9,0.6-4.1,1.5-5.7c0.4-0.6,0.9-1.2,1.3-1.8
				c2.5-2.4,2.4-1.7-0.4,2.2c-2,0.2-3.7-5.3-3.8-6.6c-0.1-1.3,0.1-2.6,0.4-3.8c1-3.7,3.7-6.5,7.4-7.6
				C1091.2,253.4,1090.4,250.5,1088.5,251L1088.5,251z" style="fill:#161616;"/>
		</g>
	</g>
	<g>
		<g>
			<path d="M550.5,312.1c-0.8-2.4-0.4-4.7,1.4-6.6c2-2.1,4.4-1.8,6.9-1.4c1.8,0.3,3.2,0.5,4.9-0.5
				c1.3-0.8,2.2-2.3,2.8-3.6c0.4-1,0.7-2,0.9-3c0.1-0.7,0.3-1.4,0.4-2c0.2-2.4,1.9-3.4,5-3c-0.1,1.8,2.4,1.9,2.9,0.4
				c0.8-2.3,1.8-4.7,3.9-6.1c3.1-2.1,7.5-1.7,8.1,2.6c0.3,1.9,3.1,1.1,2.9-0.8c-0.6-4.1-4.5-6.7-8.6-6.1c-5,0.7-7.7,5.4-9.1,9.7
				c1,0.1,2,0.3,2.9,0.4c0.2-3-2.6-4.9-5.5-4.5c-4.7,0.6-4.9,5.9-5.9,9.4c-0.7,2.5-1.3,4.4-4.8,4.3c-1,0-2.2-0.7-3.3-0.7
				c-1.9,0-3.8,0.7-5.3,1.8c-3.3,2.5-4.7,6.7-3.4,10.6C548.2,314.7,551.1,314,550.5,312.1L550.5,312.1z" style="fill:#383838;"/>
		</g>
	</g>
	<ellipse cx="1110.3" cy="395.2" rx="13" ry="13.9" style="fill:#A9A9AA;"/>
	<ellipse cx="407.1" cy="403.7" rx="8.6" ry="8.5" style="fill:#A9A9AA;"/>
	<ellipse cx="534.4" cy="766.4" rx="7.2" ry="7.8" style="fill:#A9A9AA;"/>
	<ellipse cx="1095.2" cy="412.1" rx="15.1" ry="14.3" style="fill:#444343;"/>
	<ellipse cx="796.3" cy="110.6" rx="7.7" ry="8.6" style="fill:#444343;"/>
	<ellipse cx="1218.9" cy="565.6" rx="10.8" ry="12" style="fill:#444343;"/>
	<ellipse cx="376.9" cy="493.5" rx="21.6" ry="22.1" style="fill:#444343;"/>
</g>
<g id="background_grey">
	<g>
		<g>
			<path d="M527.4,1082.1c-19.4-29.2-45.4-61-42-98.2c-0.5,0.5-1,1-1.5,1.5c3-0.1,5.6,0.4,8.4,1.6
				c1.1,0.5,2.7-0.3,2.2-1.7c-1-2.8-2.8-4.4-4.8-6.5c-3.7-3.9-4-7.9-3.8-13c0.3-8.1-1.1-15.5-4.5-22.9c-0.3,0.7-0.6,1.5-0.9,2.2
				c2.6-0.9,5.2-1.8,7.8-2.7c0.7-0.3,1.3-1,1-1.8c-6.4-18.6-3.2-39.5-1.8-58.6c1.5-20.4,3.5-40.7,5.9-61c-0.8,0.4-1.5,0.9-2.3,1.3
				c13.4,8.6,20.6,23.3,26.2,37.6c6.4,16.3,11.9,32.9,16.5,49.8c9.6,34.8,15.4,70.7,17.4,106.8c1.1,20.1,1,40.3-0.3,60.4
				c-0.1,1.9,2.9,1.9,3,0c4.7-74-6.6-149.5-34-218.5c-5.9-14.9-13.5-29.8-27.3-38.7c-1.1-0.7-2.1,0.2-2.3,1.3c-2.5,21-4.5,42-6,63
				c-1.4,18.9-4.2,39.1,2,57.4c0.3-0.6,0.7-1.2,1-1.8c-2.6,0.9-5.2,1.8-7.8,2.7c-1,0.3-1.3,1.3-0.9,2.2c2,4.4,3.5,9,4,13.9
				c0.4,4.1-0.2,8.1,0.1,12.2c0.2,2.8,0.7,5.4,2.4,7.8c2,2.8,5.2,4.6,6.4,7.9c0.7-0.6,1.5-1.1,2.2-1.7c-3.2-1.4-6.4-2.1-9.9-2
				c-0.9,0-1.4,0.7-1.5,1.5c-3.4,37.8,22.8,70.1,42.5,99.7C525.9,1085.2,528.5,1083.7,527.4,1082.1L527.4,1082.1z" style="fill:#E8E8E8;"/>
		</g>
	</g>
	<g>
		<g>
			<path d="M493.5,828c22.8,61.2,36.5,125.7,40.4,190.9c1.1,18.4,1.4,36.9,1,55.4c0,1.9,3,1.9,3,0
				c1.5-65.2-6.6-130.6-24.1-193.5c-5-18.1-10.9-36-17.4-53.6C495.8,825.4,492.9,826.2,493.5,828L493.5,828z" style="fill:#E8E8E8;"/>
		</g>
	</g>
	<g>
		<g>
			<path d="M485.4,891.2c14.8,9.2,26.9,21.9,35.4,37.2c0.9,1.7,3.5,0.2,2.6-1.5c-8.7-15.7-21.2-28.8-36.5-38.3
				C485.3,887.6,483.8,890.2,485.4,891.2L485.4,891.2z" style="fill:#E8E8E8;"/>
		</g>
	</g>
	<g>
		<g>
			<path d="M488.4,854.3c8.4,6.3,15.2,14.1,20.5,23.1c1,1.7,3.6,0.2,2.6-1.5c-5.6-9.5-12.8-17.6-21.6-24.2
				C488.4,850.6,486.9,853.2,488.4,854.3L488.4,854.3z" style="fill:#E8E8E8;"/>
		</g>
	</g>
	<g>
		<g>
			<path d="M532.4,973.4c1.8-12.4,5.3-24.5,10.5-35.9c0.8-1.7-1.8-3.3-2.6-1.5c-5.3,11.7-8.9,23.9-10.8,36.7
				C529.2,974.5,532.1,975.3,532.4,973.4L532.4,973.4z" style="fill:#E8E8E8;"/>
		</g>
	</g>
	<g>
		<g>
			<path d="M539.6,916.6c9.2-30.5,25.1-58.1,41-85.5c-0.9-0.1-1.8-0.2-2.7-0.4c8.2,40,15,80.2,20.2,120.7
				c0.5-0.5,1-1,1.5-1.5c-3.5-0.2-7-0.4-10.5-0.6c-1.2-0.1-2.1,1.8-1.1,2.6c6,4.6,5.4,12.6,4.7,19.4c-0.9,9-1.9,17.9-2.9,26.9
				c0.6-0.5,1.3-1,1.9-1.4c-2.7-0.6-5.3-0.8-8.1-0.8c-1.1,0-1.9,1.3-1.3,2.3c7.7,13.2-4.3,27-9.9,38.4c-5.6,11.5-9.2,23.9-11,36.6
				c-0.3,1.9,2.6,2.7,2.9,0.8c2.1-15.4,7.1-30,14.8-43.5c5.8-10.2,12.5-22.3,5.8-33.8c-0.4,0.8-0.9,1.5-1.3,2.3
				c2.5-0.1,4.9,0.1,7.3,0.7c1,0.2,1.8-0.4,1.9-1.4c1.1-10.3,2.7-20.6,3.2-30.9c0.3-6.4-0.6-13.3-5.9-17.5c-0.4,0.9-0.7,1.7-1.1,2.6
				c3.5,0.2,7,0.4,10.5,0.6c0.7,0,1.6-0.7,1.5-1.5c-5.3-40.7-12.1-81.3-20.4-121.5c-0.3-1.3-2.1-1.4-2.7-0.4
				c-16,27.6-32,55.5-41.3,86.2C536.2,917.6,539.1,918.4,539.6,916.6L539.6,916.6z" style="fill:#E8E8E8;"/>
		</g>
	</g>
	<g>
		<g>
			<path d="M577.8,834.4c-10.1,59.6-17,119.8-20.7,180.2c-0.1,1.9,2.9,1.9,3,0c3.6-60.1,10.5-120,20.5-179.4
				C581,833.3,578.1,832.5,577.8,834.4L577.8,834.4z" style="fill:#E8E8E8;"/>
		</g>
	</g>
	<g>
		<g>
			<path d="M547.5,894.9c4.1,13.9,8.9,27.5,14.3,40.9c0.7,1.8,3.6,1,2.9-0.8c-5.4-13.4-10.1-27.1-14.3-40.9
				C549.8,892.2,546.9,893,547.5,894.9L547.5,894.9z" style="fill:#E8E8E8;"/>
		</g>
	</g>
	<g>
		<g>
			<path d="M205.7,953.9c34.3-11.3,71.9-18.7,108.1-16.8c18.8,1,36.7,6.8,54.5,12.2c17.3,5.2,34.6,10.6,52,15.6
				c19.6,5.6,39.4,10.1,59.7,11.5c1.9,0.1,1.9-2.9,0-3c-37.4-2.4-73.5-15.6-109.1-26.4c-16.9-5.1-33.7-10.8-51.4-12.5
				c-18.2-1.7-36.7,0-54.7,2.5c-20.4,2.9-40.5,7.6-60,14C203.1,951.6,203.9,954.5,205.7,953.9L205.7,953.9z" style="fill:#E8E8E8;"/>
		</g>
	</g>
	<g>
		<g>
			<path d="M312.4,935.9c29.2-6.4,58.5-12.8,87.3-21.1c28.3-8.2,55.9-21.1,85.4-24.7c1.9-0.2,1.9-3.2,0-3
				c-29.1,3.6-56.3,16.1-84.3,24.3c-29.3,8.6-59.2,15.1-89.1,21.7C309.7,933.4,310.5,936.3,312.4,935.9L312.4,935.9z" style="fill:#E8E8E8;"/>
		</g>
	</g>
	<g>
		<g>
			<path d="M528.4,883.3c8-0.5,16.1-0.6,24.1-0.3c1.9,0.1,1.9-2.9,0-3c-8.1-0.3-16.1-0.2-24.1,0.3
				C526.5,880.5,526.5,883.5,528.4,883.3L528.4,883.3z" style="fill:#E8E8E8;"/>
		</g>
	</g>
	<g>
		<g>
			<path d="M244.1,1072.2c33.6-4.8,66.9,3.7,99.9,8.9c15.7,2.5,31.5,4,47.4,3.6c17.8-0.5,35.6-2.3,53.2,0.8
				c1.9,0.3,2.7-2.6,0.8-2.9c-17.3-3-34.6-1.5-52.1-0.9c-17.6,0.6-34.9-1.2-52.2-4c-32.4-5.3-64.9-13-97.8-8.3
				C241.4,1069.6,242.2,1072.5,244.1,1072.2L244.1,1072.2z" style="fill:#E8E8E8;"/>
		</g>
	</g>
	<g>
		<g>
			<path d="M443.9,1111.4c0.4-3.1,12.3-1.7,14.4-1.7c2.6,0,12.2-1.5,13.5,1.3c0.2-0.7,0.4-1.4,0.5-2.1
				c-4.9,3.3-10.3,4.7-16.2,4.3c-1.9-0.1-1.9,2.9,0,3c6.4,0.4,12.3-1.2,17.7-4.7c0.7-0.5,0.9-1.3,0.5-2.1c-0.9-1.9-2.4-2.4-4.4-2.7
				c-4.7-0.7-9.9-0.1-14.6-0.1c-4.5,0-13.8-1.7-14.5,4.7C440.6,1113.3,443.7,1113.3,443.9,1111.4L443.9,1111.4z" style="fill:#E8E8E8;"/>
		</g>
	</g>
	<g>
		<g>
			<path d="M446.1,1061.9c-1.9,1-3.9,0.7-5.9-0.9c-0.1,0.8-0.2,1.6-0.3,2.4c2.5-1.9,5.4-3.1,8.6-3
				c2.6,0.1,4.9,1.5,7.5,1.6c2.4,0.1,4.6-0.9,7-1.2c3.8-0.6,7.3,0.2,10.7,2.1c1.7,0.9,3.2-1.6,1.5-2.6c-2.5-1.4-5-2.4-7.9-2.6
				c-4.1-0.4-7.9,1.8-11.8,1.3c-3.2-0.4-5.8-1.7-9.2-1.4c-3,0.3-5.6,1.5-8,3.3c-0.7,0.5-1.1,1.7-0.3,2.4c2.7,2.2,5.5,2.9,8.8,1.7
				C448.7,1064.2,447.9,1061.3,446.1,1061.9L446.1,1061.9z" style="fill:#E8E8E8;"/>
		</g>
	</g>
	<g>
		<g>
			<path d="M294.5,1104.3c5.1,6.3,11.9,0.4,17.6-0.8c4.7-1,8.4,1.8,13,1.8c4.9,0,10.2-2.3,14.5,0.8
				c1.6,1.1,3.1-1.5,1.5-2.6c-2.6-1.9-5.4-2.2-8.6-2c-4.8,0.4-8.6,1-13.4-0.5c-3.3-1.1-6.1-1.1-9.4,0.1c-4,1.5-9.7,5.5-13.3,1.1
				C295.4,1100.7,293.2,1102.9,294.5,1104.3L294.5,1104.3z" style="fill:#E8E8E8;"/>
		</g>
	</g>
	<g>
		<g>
			<path d="M617.5,1084.3c6.6-2.6,11.9-1.8,18.8-1c4.3,0.5,7.3-1,11.1-2.7c4-1.8,6.7-0.9,10.3,1.1
				c1.5,0.8,2.9,1.5,4.6,1.8c5.1,1,12-2.4,16.3,1.3c1.5,1.3,3.6-0.9,2.1-2.1c-3.8-3.2-7.9-2.5-12.6-2.1c-3.9,0.3-6.9-0.4-10.2-2.3
				c-2-1.1-3.9-2.1-6.2-2.1c-2.1,0-4,0.9-5.9,1.7c-4.5,2-7.2,2.6-12.2,1.8c-5.9-0.9-11.3-0.6-16.9,1.6
				C614.9,1082.1,615.7,1085,617.5,1084.3L617.5,1084.3z" style="fill:#E8E8E8;"/>
		</g>
	</g>
	<g>
		<g>
			<path d="M1275.6,923.7c35.5-16.3,71.2-32.7,108.6-44.1c37.7-11.4,76.9-17,116.3-16.1c22.4,0.5,44.8,3.1,66.8,7.6
				c1.9,0.4,2.7-2.5,0.8-2.9c-39.2-8.1-79.5-9.9-119.2-5.2c-39.4,4.6-77.1,16.2-113.8,31.1c-20.6,8.4-40.9,17.7-61.1,27
				C1272.4,921.9,1273.9,924.5,1275.6,923.7L1275.6,923.7z" style="fill:#E8E8E8;"/>
		</g>
	</g>
	<g>
		<g>
			<path d="M1438.1,927c23.4-8.5,47.4-15.1,71.9-19.5c12.6-2.3,25.2-3.9,38-5.1c9.2-0.8,26.3-4.7,32.9,4.1
				c1.1,1.5,3.8,0,2.6-1.5c-5.7-7.6-15.6-6.9-24.2-6.4c-13.6,0.8-27.3,2.3-40.8,4.4c-27.7,4.3-54.9,11.5-81.2,21.1
				C1435.5,924.8,1436.3,927.7,1438.1,927L1438.1,927z" style="fill:#E8E8E8;"/>
		</g>
	</g>
	<g>
		<g>
			<path d="M1275.7,862.8c27.4-6,56.1-2.8,81.4,9.3c1.7,0.8,3.3-1.8,1.5-2.6c-26.1-12.4-55.5-15.8-83.7-9.6
				C1273,860.3,1273.8,863.2,1275.7,862.8L1275.7,862.8z" style="fill:#E8E8E8;"/>
		</g>
	</g>
	<g>
		<g>
			<path d="M1336.8,1000.4c4.3-5.1,11.1,0.7,15.6,2.5c3.7,1.5,6.6,1.1,10.2-0.5c5.8-2.6,10.5-0.3,16.3-0.5
				c6-0.2,10.9-5.9,16.4-0.9c1.4,1.3,3.6-0.8,2.1-2.1c-3.6-3.2-7.5-3.8-12-2.2c-2.3,0.9-4,2-6.6,2.2c-2,0.1-4-0.4-6-0.6
				c-2.4-0.3-4.8-0.7-7.1-0.3c-3.8,0.7-6.8,3.7-11,2.6c-3-0.8-5.5-2.9-8.4-4.1c-4.1-1.6-8.8-1.9-11.8,1.7
				C1333.4,999.8,1335.5,1001.9,1336.8,1000.4L1336.8,1000.4z" style="fill:#E8E8E8;"/>
		</g>
	</g>
	<g>
		<g>
			<path d="M1452.1,1077.2c-6.4-20.4-9.3-41.6-8.5-63c-0.8,0.4-1.5,0.9-2.3,1.3c2.2,1.1,4.5,2.2,6.7,3.3
				c1.1,0.5,2.2-0.1,2.3-1.3c1.4-20.6,6-40.7,13.5-60c-0.7,0.3-1.5,0.6-2.2,0.9c1.2,0.6,2.4,1.2,3.7,1.9c0.5,0.3,1.4,0.3,1.8-0.2
				c7.8-9.8,16.4-18.8,26-26.9c-0.8-0.1-1.6-0.2-2.4-0.3c7.1,9.9,6.6,22.9,6.1,34.5c-0.6,12.9-2.3,25.6-5.2,38.2
				c-5.7,24.4-15.6,47.6-29.3,68.6c-1.1,1.6,1.5,3.1,2.6,1.5c14.5-22.1,24.9-46.8,30.4-72.7c2.7-12.6,4.3-25.4,4.7-38.2
				c0.3-11.4,0.4-23.8-6.6-33.5c-0.6-0.8-1.6-1-2.4-0.3c-9.6,8.1-18.2,17-26,26.9c0.6-0.1,1.2-0.2,1.8-0.2c-1.2-0.6-2.4-1.2-3.7-1.9
				c-0.9-0.5-1.8,0-2.2,0.9c-7.6,19.5-12.1,39.9-13.6,60.8c0.8-0.4,1.5-0.9,2.3-1.3c-2.2-1.1-4.5-2.2-6.7-3.3
				c-1-0.5-2.2,0.1-2.3,1.3c-0.8,21.6,2.1,43.1,8.6,63.7C1449.8,1079.8,1452.7,1079,1452.1,1077.2L1452.1,1077.2z" style="fill:#E8E8E8;"/>
		</g>
	</g>
	<g>
		<g>
			<path d="M1496.6,1001.4c6.8-14.6,14.8-28.6,23.8-41.9c-0.6,0.2-1.1,0.5-1.7,0.7c5.8,1.5,9-3.8,12-7.8
				c5.5-7.4,12.4-13.3,20.5-17.8c-0.7-0.3-1.5-0.6-2.2-0.9c9.1,28.4,3.3,57.8-13.7,82c-8,11.4-17.2,22.3-26.6,32.6
				c-9.4,10.1-19.7,19.2-32.1,25.5c-1.7,0.9-0.2,3.5,1.5,2.6c12.6-6.4,23.2-15.7,32.7-26c10-10.9,19.8-22.4,28.1-34.6
				c16.7-24.5,22.1-54.4,13-82.8c-0.3-0.9-1.3-1.4-2.2-0.9c-5.4,3-10.4,6.6-14.9,11c-2,2-3.9,4.2-5.7,6.5c-2.2,2.8-5.1,8.9-9.6,7.8
				c-0.7-0.2-1.3,0.1-1.7,0.7c-9,13.3-17,27.3-23.8,41.9C1493.2,1001.6,1495.8,1003.2,1496.6,1001.4L1496.6,1001.4z" style="fill:#E8E8E8;"/>
		</g>
	</g>
	<g>
		<g>
			<path d="M1482.5,950.7c-6.9,18.8-15.3,37.7-19.8,57.3c-4.6,20-7.4,40.5-10.8,60.7c-0.3,1.9,2.6,2.7,2.9,0.8
				c3.5-20.2,6.2-40.8,10.8-60.7c4.5-19.6,12.9-38.4,19.8-57.3C1486.1,949.7,1483.2,948.9,1482.5,950.7L1482.5,950.7z" style="fill:#E8E8E8;"/>
		</g>
	</g>
	<g>
		<g>
			<path d="M1535.2,965.6c-11.1,17.8-22.2,35.6-33.3,53.3c-10.1,16.2-21,32.1-28,49.9c-0.7,1.8,2.2,2.6,2.9,0.8
				c7.2-18.1,18.5-34.4,28.8-50.9c10.7-17.2,21.5-34.4,32.2-51.7C1538.8,965.4,1536.2,963.9,1535.2,965.6L1535.2,965.6z" style="fill:#E8E8E8;"/>
		</g>
	</g>
	<g>
		<g>
			<path d="M1456.1,969.3c1,10.1,3.4,19.8,7.1,29.2c0.7,1.8,3.6,1,2.9-0.8c-3.6-9.1-6-18.6-7-28.4
				C1458.9,967.4,1455.9,967.3,1456.1,969.3L1456.1,969.3z" style="fill:#E8E8E8;"/>
		</g>
	</g>
	<g>
		<g>
			<path d="M1464.3,1017.4c11.5-9.9,22.1-20.7,31.9-32.3c1.2-1.5-0.9-3.6-2.1-2.1c-9.8,11.6-20.4,22.4-31.9,32.3
				C1460.7,1016.6,1462.9,1018.7,1464.3,1017.4L1464.3,1017.4z" style="fill:#E8E8E8;"/>
		</g>
	</g>
	<g>
		<g>
			<path d="M1510,969.9c-0.9,10.1-0.7,20.1,0.6,30.1c0.2,1.9,3.2,1.9,3,0c-1.3-10-1.5-20.1-0.6-30.1
				C1513.2,967.9,1510.2,967.9,1510,969.9L1510,969.9z" style="fill:#E8E8E8;"/>
		</g>
	</g>
	<g>
		<g>
			<path d="M332.1,645.5c-14.5-4-25-18.1-24.8-33.2c0.2-16.9,15.4-34.9,33.1-34.5c18.6,0.5,28.6,23.1,26.8,39.4
				c-2.1,19.4-21.4,31.6-39.9,26.5c-1.9-0.5-2.7,2.4-0.8,2.9c14.9,4.1,31-1.7,39-15.1c8-13.5,5.3-31.4-3.2-44.1
				c-8.6-12.8-24.8-16-38.1-8.3c-12.7,7.5-21.4,23-19.6,37.8c1.8,14.6,12.5,27.5,26.7,31.4C333.2,648.9,334,646,332.1,645.5
				L332.1,645.5z" style="fill:#E8E8E8;"/>
		</g>
	</g>
	<g>
		<g>
			<path d="M301.9,721.4c3.1,3.6,7.2,6,12,6.5c2.5,0.3,5,0,7.4-0.9c3.8-1.3,6.9-4.1,11.3-3.3c5.5,0.9,9.6,4.7,15.4,4
				c6.3-0.7,11.8-5.2,18.4-4.7c6,0.5,11.1,4.6,17,5.8c5.2,1.1,8.5-0.8,12.9-3.1c11.3-6,24.2,1.6,36-2.4c1.8-0.6,1-3.5-0.8-2.9
				c-10.6,3.5-21.7-2.3-32.4,0.8c-5.9,1.7-9.6,6.1-16.3,4.4c-5.1-1.3-9.5-4.4-14.7-5.3c-4.9-0.9-9.2,0.8-13.7,2.5
				c-2.6,1-5.4,2.1-8.3,2.1c-3.6,0-6.6-2-9.8-3.2c-4.6-1.7-8-1.1-12.4,0.9c-7.2,3.3-14.5,3.2-19.9-3.3
				C302.8,717.8,300.6,719.9,301.9,721.4L301.9,721.4z" style="fill:#E8E8E8;"/>
		</g>
	</g>
	<g>
		<g>
			<path d="M379.2,695.3c7.9,4.4,17-2.1,24.8,2c3.1,1.6,5.1,4.2,8.9,3.7c3.1-0.4,5.5-2.8,7.9-4.6
				c5.4-4.2,9.8-3.2,15.7-0.8c4.4,1.8,8.6,2.9,13.3,2.8c10.6-0.2,21.1-4.8,31.6-1.3c1.8,0.6,2.6-2.3,0.8-2.9c-9-3-18-0.4-27.1,0.7
				c-5.4,0.7-10.5,0.6-15.6-1.4c-4.2-1.6-8.4-4-13.1-3.4c-3.1,0.4-5.4,2.2-7.8,4.1c-2,1.6-3.9,3.6-6.6,3.6c-2.7,0.1-4.3-2-6.6-3.2
				c-7.8-4.3-17.1,2.3-24.8-2C379,691.7,377.5,694.3,379.2,695.3L379.2,695.3z" style="fill:#E8E8E8;"/>
		</g>
	</g>
	<g>
		<g>
			<path d="M1266.5,632.9c6-1.6,10.3-1.6,15.6,1.9c2.6,1.7,5.3,3,8.4,3.6c5.5,1,11.2-0.3,16.5-1.7
				c6.5-1.8,13.1-4.2,19.9-4.2c7.2,0,13.1,5,20.4,4.4c13.6-1.2,22.1-14.7,36.7-13.1c12.7,1.4,25.3,9.4,37.8,3.3
				c1.7-0.8,0.2-3.4-1.5-2.6c-13,6.3-27.1-4.3-40.5-3.8c-6.1,0.2-11.3,2.8-16.5,5.8c-6.3,3.8-13.2,9-21.1,7.1
				c-3.6-0.8-6.7-2.8-10.3-3.6c-2.8-0.6-5.6-0.6-8.4-0.3c-6.2,0.6-12.1,2.7-18,4.3c-6.9,1.8-14.1,3.1-20.6-0.8
				c-2.7-1.7-5.1-3.7-8.3-4.3c-3.7-0.7-7.4,0.3-10.9,1.2C1263.9,630.5,1264.6,633.4,1266.5,632.9L1266.5,632.9z" style="fill:#E8E8E8;"/>
		</g>
	</g>
	<g>
		<g>
			<path d="M1375.4,659.3c5.7-3.3,12.3-3.9,18.3-1.1c3.6,1.6,6.4,3.7,10.5,3.4c9.3-0.7,15.7-8.9,25.4-4.5
				c2.9,1.3,5.7,2.7,9,2.2c4.1-0.7,7-4,10.7-5.4c9.1-3.5,19.4,1.6,28.9-0.5c1.9-0.4,1.1-3.3-0.8-2.9c-9.4,2-19.1-2.8-28.4,0.3
				c-4.3,1.4-7.6,5.5-12.3,5.5c-4.7,0-8.4-3.8-13.3-3.7c-9,0.2-16.2,9.2-25.4,4.8c-8.2-4-16-5.2-24.3-0.4
				C1372.2,657.6,1373.7,660.2,1375.4,659.3L1375.4,659.3z" style="fill:#E8E8E8;"/>
		</g>
	</g>
	<g>
		<g>
			<path d="M1297.5,808.7c6.4-2,10.9-0.4,16.7,2.1c3.2,1.3,6.2,1.6,9.6,1c4.2-0.9,8-2.9,12.1-4
				c6.2-1.6,9.7,1.8,15.1,3.9c8,3.1,14.5-2.6,21.9-4.4c9.4-2.3,18,4.4,27.5,3c1.9-0.3,1.1-3.2-0.8-2.9c-9.2,1.4-17.5-5.2-26.8-3.1
				c-4.4,1-8.2,3.4-12.5,4.7c-6.3,1.9-9.9-1.5-15.4-3.7c-7.5-2.9-14.1,1.9-21.3,3.5c-5.2,1.2-8.7-1.4-13.4-3
				c-4.5-1.5-9.1-1.3-13.5,0.1C1294.8,806.4,1295.6,809.3,1297.5,808.7L1297.5,808.7z" style="fill:#E8E8E8;"/>
		</g>
	</g>
	<path d="M1489.6,1112.2c-133.9,25.6-267.9,51.1-401.8,76.7c-160.3-50-320.5-100-480.8-150c213.7,0.8,427.4,1.5,641,2.3
		C1328.6,1064.9,1409.1,1088.6,1489.6,1112.2z" style="opacity:0.22;fill:#666666;"/>
	<path d="M1334,1074.4c-112.9,27.1-225.9,54.2-338.8,81.3c-127.4-38.9-254.9-77.8-382.3-116.8
		c172.8-14.5,345.7-29,518.5-43.5C1198.9,1021.8,1266.4,1048.1,1334,1074.4z" style="opacity:0.19;fill:#666666;"/>
</g>
<g id="gift">
	<path d="M606.5,736.5c1.5,99.7,3.1,199.4,4.6,299.2c126.6,28.6,253.1,57.1,379.7,85.7c-0.2-115.4-0.5-230.8-0.7-346.2
		C862.2,762.2,734.3,749.3,606.5,736.5z" style="fill:#FFFFFF;stroke:#161616;stroke-width:2;stroke-miterlimit:10;"/>
	<path d="M1269.5,710.2c-0.5,110-1,220-1.5,330c-92.1,27.1-184.3,54.1-276.4,81.2c-0.3-116.7-0.6-233.3-0.9-350
		C1083.6,751.1,1176.6,730.7,1269.5,710.2z" style="fill:#FFFFFF;stroke:#161616;stroke-width:2;stroke-miterlimit:10;"/>
	<path d="M987.5,774.2C861,761.1,734.6,748,608.2,734.9c83.3-21.2,166.6-42.4,249.9-63.6
		c136.2,13.1,272.5,26.2,408.7,39.4C1173.7,731.8,1080.6,753,987.5,774.2z" style="fill:#FFFFFF;stroke:#161616;stroke-width:2;stroke-miterlimit:10;"/>
	<path d="M1080.1,692.8c-32.5-2.2-64.9-4.4-97.4-6.6c-64,23.4-128,46.8-191.9,70.2c-0.6,106.1-1.2,212.2-1.9,318.3
		c28.7,6.9,57.4,13.7,86.1,20.6c-1.2-109.9-2.5-219.7-3.7-329.6C940.9,741.5,1010.5,717.1,1080.1,692.8z" style="fill:#161616;stroke:#161616;stroke-width:2;stroke-miterlimit:10;"/>
	<path d="M1108.1,1086c26.5-8.1,53.1-16.2,79.6-24.3c-0.9-109.9-1.9-219.7-2.8-329.6c-129.8-15.3-259.7-30.6-389.5-45.9
		c-22.5,5.6-44.9,11.2-67.4,16.9c127,19.7,254,39.3,381.1,59C1108.8,870.1,1108.5,978,1108.1,1086z" style="fill:#161616;stroke:#161616;stroke-width:2;stroke-miterlimit:10;"/>
	<path d="M1114.8,543.8c9.2,3.8,10.7,27.6,5.7,46.2c-19.2,71.3-143.5,100.2-149.4,89.3c-2.5-4.7,18.9-13.6,63.9-58.2
		C1084.6,571.9,1102.7,538.9,1114.8,543.8z" style="fill:#FFFFFF;stroke:#161616;stroke-width:2;stroke-miterlimit:10;"/>
	<path d="M859,590.7c2.4,11.3,8.3,24.4,46.2,60.8c25.4,24.4,38.2,36.6,41.8,34.2c7.3-5-16.9-53.1-39.9-87.4
		c-11.8-17.6-32.5-48.3-43-44.3C856.6,556.8,856,576.6,859,590.7z" style="fill:#FFFFFF;stroke:#161616;stroke-width:2;stroke-miterlimit:10;"/>
	<ellipse cx="954.4" cy="699.4" rx="26.6" ry="28.1" style="fill:#161616;stroke:#161616;stroke-width:2;stroke-miterlimit:10;"/>
	<path d="M954.9,688c15.1-14.7,30.4-30.3,45.7-46.6c33.8-36,63.9-71.5,90.6-105.9c5.8-0.7,17.2-1.4,22,5.1
		c7,9.3-4.1,27.7-9.3,36.4C1077.4,621.1,993.1,668,954.9,688z" style="fill:#161616;stroke:#161616;stroke-width:2;stroke-miterlimit:10;"/>
	<path d="M865.1,552.5c3.7-3.4,15.2,3.5,22,7.6c56.4,33.9,63.3,114.1,64.4,128.7C905.5,629.4,855.8,561.2,865.1,552.5z" style="fill:#161616;stroke:#161616;stroke-width:2;stroke-miterlimit:10;"/>
	<g>
		<g>
			<path d="M627.4,790.5c45.6,0.8,91.4,0.6,136.9,2.7c46,2.1,91.6,8.5,137,16.4c25.6,4.5,51.2,9.4,76.8,14.4
				c1.9,0.4,2.7-2.5,0.8-2.9c-44.8-8.7-89.7-17.3-135-23.4c-45.8-6.1-91.6-8.1-137.8-8.9c-26.2-0.4-52.5-0.9-78.7-1.3
				C625.5,787.5,625.5,790.5,627.4,790.5L627.4,790.5z" style="fill:#161616;"/>
		</g>
	</g>
	<g>
		<g>
			<path d="M1015.9,822.5c76.6-23,154.7-40.9,233.8-53.5c1.9-0.3,1.1-3.2-0.8-2.9c-79,12.6-157.1,30.5-233.8,53.5
				C1013.3,820.1,1014.1,823,1015.9,822.5L1015.9,822.5z" style="fill:#161616;"/>
		</g>
	</g>
	<g>
		<g>
			<path d="M878.3,960.2c0,30.3,0,60.5,0,90.8c0,1.9,3,1.9,3,0c0-30.3,0-60.5,0-90.8
				C881.3,958.3,878.3,958.3,878.3,960.2L878.3,960.2z" style="fill:#161616;"/>
		</g>
	</g>
	<g>
		<g>
			<path d="M888.2,1032.9c0,15.1,0,30.3,0,45.4c0,1.9,3,1.9,3,0c0-15.1,0-30.3,0-45.4
				C891.2,1030.9,888.2,1030.9,888.2,1032.9L888.2,1032.9z" style="fill:#161616;"/>
		</g>
	</g>
	<g>
		<g>
			<path d="M1095.2,883.1c0,24.2,0,48.4,0,72.6c0,1.9,3,1.9,3,0c0-24.2,0-48.4,0-72.6
				C1098.2,881.2,1095.2,881.2,1095.2,883.1L1095.2,883.1z" style="fill:#161616;"/>
		</g>
	</g>
	<g>
		<g>
			<path d="M1100.6,983.8c0,16.3,0,32.7,0,49c0,1.9,3,1.9,3,0c0-16.3,0-32.7,0-49
				C1103.6,981.9,1100.6,981.9,1100.6,983.8L1100.6,983.8z" style="fill:#161616;"/>
		</g>
	</g>
	<g>
		<g>
			<path d="M735.1,879.2c0,13.1,0,26.2,0,39.3c0,1.9,3,1.9,3,0c0-13.1,0-26.2,0-39.3
				C738.1,877.3,735.1,877.3,735.1,879.2L735.1,879.2z" style="fill:#161616;"/>
		</g>
	</g>
	<g>
		<g>
			<path d="M726.6,929.1c0,10.6,0,21.2,0,31.8c0,1.9,3,1.9,3,0c0-10.6,0-21.2,0-31.8
				C729.6,927.2,726.6,927.2,726.6,929.1L726.6,929.1z" style="fill:#161616;"/>
		</g>
	</g>
	<path d="M1263.1,1039.8c-90.4,27.5-180.8,55.1-271.2,82.6c0-114.8,0-229.6,0-344.4c90.9-20.8,181.8-41.6,272.7-62.3
		C1264.2,823.7,1263.7,931.7,1263.1,1039.8z" style="opacity:0.21;fill:#666666;"/>
	<path d="M1269.1,1041.1c-92.1,25.2-184.1,50.4-276.2,75.6c-0.6-100.5-1.2-200.9-1.9-301.4
		c40.7,37.3,81.5,74.6,122.2,112c51.6-17.1,103.3-34.2,154.9-51.3C1268.5,931,1268.8,986.1,1269.1,1041.1z" style="opacity:0.21;fill:#666666;"/>
	<path d="M1119.3,549c-4.9-1-10.1,32.7-27.2,60.4c-15.5,25.1-46.4,54.5-114.5,71.5c8.8-0.8,22.2-2.6,37.9-7.2
		c16.3-4.7,85.1-24.7,103.2-78.4C1126.1,573.1,1123.3,549.8,1119.3,549z" style="opacity:0.14;fill:#666666;"/>
	<path d="M872.4,763.2c28.9,19.6,57.9,39.2,86.8,58.8c-26.6-4.6-53.1-9.1-79.7-13.7c1.1,53.4,5.5,113.3,15.7,178.3
		c6.7,42.7,15,82.4,24.2,118.8c-14.1-3.9-28.3-7.8-42.4-11.8C875.5,983.5,874,873.3,872.4,763.2z" style="opacity:0.2;fill:#666666;"/>
	<path d="M879.4,764.1c42.5-6.1,85.1-12.2,127.6-18.3c-18.7-2.5-37.4-5-56.1-7.4c-12.9,4.8-23.5,8.1-30.9,10.3
		c-7.6,2.2-13.3,3.6-21.8,6.9C890.1,758.7,883.6,761.9,879.4,764.1z" style="opacity:0.13;fill:#666666;"/>
</g>
<g id="robot_toy">
	<path d="M1225.6,1017.7c-2.8,2.6-5.5,5.3-8.3,7.9c4.8,18.5,9.6,37,14.4,55.5c3.8-1.9,7.7-3.7,11.5-5.6
		C1237.4,1056.2,1231.5,1036.9,1225.6,1017.7z" style="fill:#161616;stroke:#161616;stroke-width:3;stroke-miterlimit:10;"/>
	<path d="M1231.1,1009c-2.8-0.8-5.5-1.6-8.3-2.4c-0.5-9.6-1.1-19.2-1.6-28.8c16.3-5.9,32.7-11.8,49-17.8
		c1.4,0.4,2.9,0.8,4.3,1.2C1260.1,977.1,1245.6,993.1,1231.1,1009z" style="fill:#161616;stroke:#161616;stroke-width:3;stroke-miterlimit:10;"/>
	<path d="M1230.6,977.8c0.4,10.6,0.9,21.1,1.3,31.7c13.9-4,27.7-7.9,41.6-11.9c0.2-11.9,0.4-23.7,0.7-35.6
		C1259.6,967.3,1245.1,972.5,1230.6,977.8z" style="fill:#FFFFFF;stroke:#161616;stroke-width:3;stroke-miterlimit:10;"/>
	<path d="M1226,1017.4c17.2-4.4,34.3-8.8,51.5-13.2c-0.6,5.1-0.9,10.9-0.7,17.2c0.7,16.6,5.1,30.2,9.2,39.6
		c-14.3,4.8-28.6,9.7-42.9,14.5C1237.4,1056.1,1231.7,1036.8,1226,1017.4z" style="fill:#FFFFFF;stroke:#161616;stroke-width:3;stroke-miterlimit:10;"/>
	<g>
		<g>
			<path d="M1243.7,1005.9c-0.1,1.8,0.2,3.6,0.9,5.3c0.7,1.8,3.6,1,2.9-0.8c-0.6-1.5-0.8-3-0.8-4.5
				C1246.8,1004,1243.8,1004,1243.7,1005.9L1243.7,1005.9z" style="fill:#161616;"/>
		</g>
	</g>
	<g>
		<g>
			<path d="M1252.9,1004.3c-0.2,1.6,0.1,3.2,0.7,4.6c0.3,0.7,1,1.3,1.8,1c0.7-0.2,1.4-1.1,1-1.8
				c-0.5-1.3-0.7-2.5-0.6-3.8c0.1-0.8-0.7-1.5-1.5-1.5C1253.5,1002.8,1252.9,1003.5,1252.9,1004.3L1252.9,1004.3z" style="fill:#161616;"/>
		</g>
	</g>
	<g>
		<g>
			<path d="M1240.2,1077.9c2.1,9.8,11.5,18.7,19.2,24.7c8.5,6.6,18.5,10.5,29.1,11.7c1.9,0.2,1.9-2.8,0-3
				c-10.3-1.2-20.2-5.2-28.3-11.9c-6.8-5.6-15.2-13.6-17.1-22.3C1242.7,1075.2,1239.8,1076,1240.2,1077.9L1240.2,1077.9z" style="fill:#161616;"/>
		</g>
	</g>
	<g>
		<g>
			<path d="M1247.2,1075.3c9.8,14.9,22.8,28.7,41.2,31.7c1.9,0.3,2.7-2.6,0.8-2.9c-17.7-2.9-30-16-39.5-30.3
				C1248.7,1072.1,1246.1,1073.6,1247.2,1075.3L1247.2,1075.3z" style="fill:#161616;"/>
		</g>
	</g>
	<g>
		<g>
			<path d="M1290,1105.2c0.7-3.1,1.7-6.1,3.2-9c0.6-1.1,1.5-2.2,1.9-3.3c-0.9-1.8-1.2-1.7-0.7,0.2c0.2,1,0.3,2,0.4,3.1
				c0.2,2.8,0,5.5-0.3,8.3c-0.1,1.2,0,5.3-0.8,6.2c-0.8,0.9-2.6,0.8-3.6,0.9c-1.9,0.1-1.9,3.1,0,3c2-0.1,4.1,0.8,5.7-0.9
				c1.6-1.8,1.3-5.3,1.6-7.5c0.5-3.8,0.7-7.7,0.3-11.6c-0.2-1.8-0.1-4.3-1.8-5.2c-0.4-0.2-1.1-0.3-1.5,0c-4.1,3.2-6.2,10.4-7.3,15.1
				C1286.6,1106.3,1289.5,1107.1,1290,1105.2L1290,1105.2z" style="fill:#161616;"/>
		</g>
	</g>
	<g>
		<g>
			<path d="M1270.3,1067.3c9.3,11.3,23.7,16.7,38.1,14.8c1.9-0.3,1.1-3.1-0.8-2.9c-13.4,1.8-26.7-3.6-35.2-14
				C1271.2,1063.7,1269.1,1065.8,1270.3,1067.3L1270.3,1067.3z" style="fill:#161616;"/>
		</g>
	</g>
	<g>
		<g>
			<path d="M1262.3,1071.1c11.2,12.1,27.1,18.8,43.6,18.3c1.9-0.1,1.9-3.1,0-3c-15.8,0.5-30.8-5.8-41.5-17.4
				C1263.2,1067.5,1261,1069.7,1262.3,1071.1L1262.3,1071.1z" style="fill:#161616;"/>
		</g>
	</g>
	<g>
		<g>
			<path d="M1310.6,1080.2c0.5-1.9,1.1-3.8,1.8-5.6c0.2-0.6,2-6.3,2.7-6.3c-0.5-0.4-1-0.7-1.4-1.1c1,3,0.3,7.2,0,10.2
				c-0.4,3.7-1.2,7.3-2.2,10.9c-0.5,1.9,2.4,2.7,2.9,0.8c1.1-3.8,1.9-7.7,2.3-11.7c0.3-3.3,1-7.8-0.1-11c-0.2-0.6-0.8-1.1-1.4-1.1
				c-4.5,0.3-6.5,10.7-7.4,14.1C1307.2,1081.3,1310.1,1082.1,1310.6,1080.2L1310.6,1080.2z" style="fill:#161616;"/>
		</g>
	</g>
	<g>
		<g>
			<path d="M1304.8,1089.2c2.4,1,4.9,1.4,7.5,0.9c1.9-0.3,1.1-3.2-0.8-2.9c-1.7,0.3-3.5,0.1-5.2-0.6
				C1304.6,1085.8,1303,1088.4,1304.8,1089.2L1304.8,1089.2z" style="fill:#161616;"/>
		</g>
	</g>
	<g>
		<g>
			<path d="M1250.1,1090.2c0.4-2.4,2.5-3.9,4.9-3.6c1.9,0.2,1.9-2.8,0-3c-3.6-0.4-7.2,2.2-7.8,5.8
				C1246.8,1091.3,1249.7,1092.1,1250.1,1090.2L1250.1,1090.2z" style="fill:#161616;"/>
		</g>
	</g>
	<g>
		<g>
			<path d="M1258.9,1099.1c0.4-2,1.9-3.4,3.8-3.8c1.9-0.4,1.1-3.3-0.8-2.9c-2.9,0.6-5.3,2.9-5.9,5.8
				C1255.6,1100.2,1258.4,1101,1258.9,1099.1L1258.9,1099.1z" style="fill:#161616;"/>
		</g>
	</g>
	<g>
		<g>
			<path d="M1268.2,1106.2c0.7-2.1,2.4-3.6,4.6-4c1.9-0.4,1.1-3.3-0.8-2.9c-3.2,0.6-5.7,3-6.7,6.1
				C1264.7,1107.2,1267.6,1108,1268.2,1106.2L1268.2,1106.2z" style="fill:#161616;"/>
		</g>
	</g>
	<g>
		<g>
			<path d="M1278,1102.7c-2.3,1.6-3.4,4.2-2.9,7c0.3,1.9,3.2,1.1,2.9-0.8c-0.2-1.4,0.4-2.8,1.5-3.6
				C1281.1,1104.2,1279.6,1101.6,1278,1102.7L1278,1102.7z" style="fill:#161616;"/>
		</g>
	</g>
	<g>
		<g>
			<path d="M1293.5,1094.1c-1.9,5.1-0.9,11.7-0.9,17.1c0,1.9,3,1.9,3,0c0-5.1-1-11.5,0.8-16.3
				C1297,1093.1,1294.1,1092.3,1293.5,1094.1L1293.5,1094.1z" style="fill:#161616;"/>
		</g>
	</g>
	<g>
		<g>
			<path d="M1277.4,1079.1c0-1.6,1-3,2.6-3.4c1.9-0.5,1.1-3.4-0.8-2.9c-2.8,0.7-4.8,3.4-4.8,6.3
				C1274.4,1081,1277.4,1081,1277.4,1079.1L1277.4,1079.1z" style="fill:#161616;"/>
		</g>
	</g>
	<g>
		<g>
			<path d="M1269.3,1073.8c0.8-1.6,2.3-2.6,4.1-2.9c0.8-0.1,1.2-1.1,1-1.8c-0.2-0.9-1-1.2-1.8-1c-2.5,0.4-4.7,2-5.9,4.3
				C1265.9,1074,1268.5,1075.5,1269.3,1073.8L1269.3,1073.8z" style="fill:#161616;"/>
		</g>
	</g>
	<g>
		<g>
			<path d="M1293.5,1085c0-0.8,0.4-1.5,1.2-1.9c1.7-0.9,0.2-3.5-1.5-2.6c-1.7,0.9-2.7,2.7-2.6,4.5
				C1290.5,1086.9,1293.5,1086.9,1293.5,1085L1293.5,1085z" style="fill:#161616;"/>
		</g>
	</g>
	<g>
		<g>
			<path d="M1237.9,991.1c2,0,4,0,6,0c1.9,0,1.9-3,0-3c-2,0-4,0-6,0C1236,988.1,1236,991.1,1237.9,991.1L1237.9,991.1z" style="fill:#161616;"/>
		</g>
	</g>
	<g>
		<g>
			<path d="M1261.8,984.7c1.5-1.5,3-3,4.5-4.5c1.4-1.4-0.8-3.5-2.1-2.1c-1.5,1.5-3,3-4.5,4.5
				C1258.4,983.9,1260.5,986,1261.8,984.7L1261.8,984.7z" style="fill:#161616;"/>
		</g>
	</g>
	<g>
		<g>
			<path d="M1250.5,995.5c2.8,0.9,5.8-0.4,7.3-2.8c1-1.7-1.6-3.2-2.6-1.5c-0.8,1.4-2.4,1.9-3.9,1.5
				C1249.4,992.1,1248.7,995,1250.5,995.5L1250.5,995.5z" style="fill:#161616;"/>
		</g>
	</g>
	<path d="M1270.9,1026.7c-5.2,1.5-10.4,3-15.6,4.5c-0.7-1.4-1.6-3.4-2-6c-0.5-2.9-0.3-5.3,0-6.9
		c5.6-1.1,11.2-2.2,16.8-3.3c-0.5,1.5-1,4.1-0.5,7.2C1269.9,1024.1,1270.4,1025.6,1270.9,1026.7z" style="fill:#4F4D4D;"/>
	<path d="M1241,974.5c0.3,10,0.7,20.1,1,30.1c10.3-2.7,20.6-5.3,30.9-8c0.1-11,0.2-21.9,0.2-32.9
		C1262.5,967.4,1251.7,970.9,1241,974.5z" style="opacity:0.24;fill:#666666;"/>
	<path d="M1241.5,1016.7c1.4,6.8,3.2,14,5.2,21.4c3.3,11.9,7.1,22.8,11,32.6c9-3.1,17.9-6.1,26.9-9.2
		c-2.2-4.7-4.3-10.3-6-16.7c-3.9-15.2-3.4-28.5-2.2-37.6C1264.7,1010.3,1253.1,1013.5,1241.5,1016.7z" style="opacity:0.24;fill:#666666;"/>
</g>
<g id="hand_r">
	<path d="M716.4,219.8c0.4,8.1,1.1,19.9,2.4,34c3.2,35.1,5.1,65.4,13.2,89.4c6.1,18.1,20.5,52,56.5,86.1
		c-2.1,6.9-5.5,15.6-11.2,25c-7,11.5-15,19.7-21,25c-29.6-28.9-45.1-57.7-53.3-76.3c-20.1-45.8-20.6-87.5-21-118.4
		c-0.3-25.1,1.8-46.2,4-61.3c-3.6-3.4-9.1-8.7-16-15c-12.6-11.4-17.4-15.1-16.6-16.7c0.7-1.4,5.9-1.3,27.5,6.4
		c-18.6-23.9-26.9-36.7-24.9-38.6c1.8-1.7,11.8,5.5,30.1,21.6c-13.6-33.8-15.8-43.9-14-44.8c1.8-0.9,8.8,7.2,28.4,39.7
		c-3.1-26.2-2.1-32.1-0.5-32.5c2.8-0.6,9,15.7,10.8,20.6c4.2,11.2,6.5,20.8,7.7,27.3c16.9-13.3,20.3-12.1,21.1-11.3
		c2.9,2.6-4.8,15.8-6.7,19.1C727.4,208.7,721.1,215.5,716.4,219.8z" style="fill:#FFFFFF;stroke:#161616;stroke-width:2;stroke-miterlimit:10;"/>
	<path d="M673,137.8c-1.7,0.9,4.6,17.7,12.8,32c2.3,3.9,3.7,5.8,15.8,24c4.9,7.4,8.9,13.4,11.6,17.4
		c-3.5,14.4-7.3,34.2-8.3,58c-0.7,16.6-1.8,49.5,9.8,88.9c12.6,42.8,34.5,73.7,50.5,92.4c7.7-6.9,15.4-13.8,23.1-20.7
		c-33.1-31.8-47.7-63.7-54.4-81.8c-9.5-25.8-12.1-50.6-14.4-72.2c-2.5-22.5-2.8-41.5-2.6-55.4c5.1-4,12.7-11,18.3-21.9
		c1.2-2.4,7.8-15.1,4.5-17.9c-3.5-3-16.2,6.6-21.5,10.7c-11.7-38.7-16.4-47.4-18.3-47c-1.1,0.2-1.4,3.4-1.8,8.5
		c-0.8,10.4,1,18.9,2.7,24.2C700.7,177.2,700.7,177.2,673,137.8z" style="opacity:0.15;fill:#666666;"/>
	<path d="M737,189.7c-4.1,1.9-12.8,6.6-19.7,16.6c-6.3,9.1-8,17.9-8.5,22.4c-1.4,14-1.7,30,0.1,47.3
		c6.3,61.6,35.2,106.8,53.9,130.9c-12.9-21.3-29.5-54-39-96.7c-8.2-36.6-8.5-68.4-7-91.3c3.9-4.1,8.3-9.3,12.5-15.7
		C732.5,198.4,735,193.8,737,189.7z" style="opacity:0.2;fill:#666666;"/>
	<path d="M703.7,197.1" style="fill:#FFFFFF;stroke:#161616;stroke-width:2;stroke-miterlimit:10;"/>
</g>
<g id="hand_l">
	<path d="M886.9,424.2c-6.9,3.2-12.7,5.4-16.1,11.7c-6.7,12.3,2.2,28.7,4.4,32.8c5.6,10.4,13.6,16.8,19.7,20.6
		c19.4-8.4,48.4-24.4,74.1-53.9c33.2-38.1,42.8-78.5,47.8-100.2c6.7-29.6,7-54.9,6.1-72.1c4.9-8.5,12-20.5,21.1-34.9
		c8-12.8,12.4-19.5,10.7-21.3c-1.3-1.3-6.3-0.2-24,12.5c6.4-24.9,8.5-37.8,6.2-38.7c-2.2-0.8-8.4,9.3-18.6,30.4
		c1.5-28.8,0.8-43.4-2.1-43.8c-3-0.5-8.5,15.2-16.5,46.9c-4.7-21.9-8.1-32.7-10.3-32.5c-2.6,0.3-3.4,15.8-2.6,46.4
		c-15.1-8.3-23.7-11.3-25.8-8.8c-2.9,3.5,6.8,17.3,29.1,41.6c0.5,9.4,0.4,24.4-3.2,42.1c-1.8,8.9-14.6,71.5-58.2,96.3
		C914.6,407.4,901.5,417.4,886.9,424.2z" style="fill:#FFFFFF;stroke:#161616;stroke-width:2;stroke-miterlimit:10;"/>
	<path d="M1036.9,180.5c-1.6-0.5-4.3,8.7-15.3,24.5c-2.6,3.8-3.8,5.2-4.8,8.2c-2.7,8.7,2.1,14.2,1.9,21.5
		c-0.2,5.2-2.9,12.5-15.3,21.3c2.1,7.5,4.4,18.2,5.1,31.1c2.7,51.5-24.3,89.2-33.7,104.9c-8.9,14.9-35.5,53.5-100.2,77.2
		c0.5,2.5,2.3,9.4,8.5,14.9c3.8,3.4,7.8,4.9,10.2,5.5c13.4-5.5,32-14.9,51.2-30.7c30.3-25,45-52.3,52-65.7
		c28.3-53.8,28.3-106.3,26.4-132.5c5.7-9,10.7-16.9,14.6-23.1c14-22.2,18.4-29.3,16.7-31c-0.9-0.9-3.9-0.5-13.6,6.1
		c-3.3,2-6.6,4.1-9.9,6.1C1037.8,188.9,1038.3,180.9,1036.9,180.5z" style="opacity:0.16;fill:#666666;"/>
	<path d="M1041,231.9c-23,14.1-28.4,26.1-28.9,34.7c-0.2,3.4,0.4,4.3,1.1,12.4c0,0-0.6,14.8-0.4,33.3
		c0.3,26.4-10.6,50.3-23.9,79.3c-7,15.2-17.4,35.2-32.8,57.1c11.1-11,23-25.1,33.7-42.6c34.2-56.5,34.2-114.1,32.2-141.8
		C1028.3,253.4,1034.6,242.6,1041,231.9z" style="opacity:0.28;fill:#666666;"/>
	<path d="M960.7,221c22.3,11.4,28.6,13.3,29.3,12.3c0.6-1-3.1-4.9-6.5-7.1c-1.4-0.9-3.3-1.8-7.1-3.4
		c-6.8-2.9-8.6-3.1-9.9-3.1C963.9,219.6,961.9,220.4,960.7,221z" style="opacity:0.11;fill:#666666;"/>
</g>
<g id="leg_r">
	<path d="M663.3,851.4c-0.8,5,3.8,10.9,12.8,22.8c4.8,6.3,9.2,11.1,12.1,14.2c-4.5,8.1-12.4,25.5-8.5,46.3
		c1.2,6.7,3.3,17.8,9.3,19.2c10.4,2.5,25.9-25.8,32-39.2c6.9-15.1,9.9-28.8,11.4-38.5c-10.4-14-20.9-28-31.3-42
		C680.4,836,664.6,842.6,663.3,851.4z" style="fill:#161616;stroke:#161616;stroke-width:2;stroke-miterlimit:10;"/>
	<path d="M785.7,637.7c6.6,49.7-3.6,69.3-15.1,77.7c-10.4,7.6-20.7,5.1-45.3,12.2c-21.5,6.3-38,15.3-48.9,22.3
		c1.4,10,4.3,22.8,10.1,36.7c9.2,22,22,37.5,31.1,46.8c-1.8,3.8-9.3,18.4-26.8,25.8c-14.2,6.1-27,3.9-31.7,2.9
		c-16-14.8-40.6-42.3-51.7-82.8c-4.5-16.5-10-37.8-1.9-61.6c5.1-14.9,13-23.3,28.9-40.1c5.2-5.5,27.9-29,68.1-50.4
		c23.5-12.5,35.4-18.8,49.5-15.9C769.9,615.2,781,630.2,785.7,637.7z" style="fill:#383838;"/>
	<path d="M762.3,634.7c-16.2,9.8-38.7,24.1-64.7,42.8c-45,32.4-65.6,49.7-73,67.7c-7.2,17.5-2.1,49.5,62.9,113
		c3.5-0.7,9-2.4,14.5-6.2c8.9-6.1,13-14.3,14.5-18c-7.3-7.5-16-18.1-23.8-32.1c-11.1-20-15.5-38.7-17.4-51.4
		c20.4-14.3,38.3-20.2,51.3-22.9c19.4-4.1,35.1-2.5,47.1-14.9c6.1-6.3,8.5-13.5,10.7-20.1c6.2-18.5,3.9-34.9,2-43.4
		C778.4,644.5,770.3,639.6,762.3,634.7z" style="opacity:0.21;fill:#666666;"/>
	<path d="M756.3,648.8c-2.1,9.2-5.5,19.5-10.6,30.3c-17.8,37.2-47.1,57.8-63.4,67.4c13.1-8.7,24.7-13.3,32.9-15.9
		c2.8-0.9,5.7-1.7,36.4-9.7c14-3.7,18-4.7,22.2-8.7c2.5-2.4,6.6-7.3,9.8-25.1c1.6-9.1,3.2-22.4,2.1-38.9
		C775.8,648.4,766,648.6,756.3,648.8z" style="opacity:0.16;fill:#666666;"/>
	<path d="M675.4,747.7c-2.7,12.7-5.9,37.1,2.5,65.6c5.3,18,13.6,31.6,20,40.5c3-1.7,7.2-4.6,11.3-9.2
		c3.5-4,5.7-7.9,7.1-10.9c-7.3-7.5-16.1-18.1-23.8-32.2C680.9,780.3,676.9,760.5,675.4,747.7z" style="opacity:0.17;fill:#666666;"/>
</g>
<g id="leg_l">
	<path d="M733,846.4c6.6,9.3,13.3,18.5,19.9,27.8c-3.6,9.5-12.7,37.6,0.7,59.8c2.3,3.8,6.4,10.6,12.1,10.7
		c12.1,0.2,21-29.8,22.8-35.6c3-9.9,6.1-25.2,4.3-44.9c-4.5-28.9-25.5-44.5-39.9-41.3C739.7,825.8,733.7,844.4,733,846.4z" style="fill:#161616;stroke:#161616;stroke-width:2;stroke-miterlimit:10;"/>
	<path d="M856.7,634.4c8.5,53.6-8.8,72.2-15.1,77.7c-5.9,5.1-11.6,7.1-43.5,17.7c-11.9,4-29.4,9.8-50.8,16.8
		c1.4,10,4.3,22.8,10.1,36.7c9.2,22,22,37.5,31.1,46.8c-1.8,3.8-9.3,18.4-26.8,25.8c-14.2,6.1-27,3.9-31.7,2.9
		c-16-14.8-40.6-42.3-51.7-82.8c-4.5-16.5-10-37.8-1.9-61.6c5.1-14.9,13-23.3,28.9-40.1c5.2-5.5,27.9-29,68.1-50.4
		c23.5-12.5,35.4-18.8,49.5-15.9C841,611.8,852,626.9,856.7,634.4z" style="fill:#383838;"/>
	<path d="M790.9,632.2c-3.2,9.9-9.5,25.9-21.5,42.8c-29.8,41.8-63.4,44.3-73,67.7c-7.2,17.5-2.1,49.5,62.9,113
		c3.9-1.6,8.9-4,14.1-7.9c7.5-5.6,12.2-11.9,15-16.3c-7.4-7.7-16-18.3-23.8-32.1c-11.5-20.5-16.3-39.6-18.5-52.8
		c22.7-7.7,41-13.4,53.2-17.2c24.4-7.4,36.9-10.6,46.6-22.9c6-7.7,8.5-15.8,10.1-21.1c5-16.3,3.6-30.5,2.2-38.7
		C835.8,642,813.4,637.1,790.9,632.2z" style="opacity:0.21;fill:#666666;"/>
	<path d="M828.1,646.2c-2.1,9.3-5.4,19.6-10.6,30.3c-20.6,42.1-57.3,62.7-74.5,70.8c17.4-5.5,33.1-10.5,46.8-14.9
		c0,0,7.1-2.3,24.5-8.5c22.2-8,26-10,29.8-13.8c6.7-6.8,8.5-14.4,11.2-25.5c2-8.5,4.2-21.9,2.1-38.9
		C847.7,645.9,837.9,646.1,828.1,646.2z" style="opacity:0.16;fill:#666666;"/>
	<path d="M747.2,745.2c-2.7,12.7-5.9,37.1,2.5,65.6c5.3,18,13.6,31.6,20,40.5c3-1.7,7.2-4.6,11.3-9.2
		c3.5-4,5.7-7.9,7.1-10.9c-7.3-7.5-16.1-18.1-23.8-32.2C752.7,777.8,748.7,758,747.2,745.2z" style="opacity:0.17;fill:#666666;"/>
</g>
<g id="torso">
	<path d="M785.9,422.7c-19.4,14.4-28.6,36.5-30.7,41.7c-1.3,3.1-5,12.9-6.7,26.4c-2,15.4-0.4,28.3,1.2,36.8
		c0.7,11.9,0.3,31.6-8,54c-5.9,16.1-13.9,28.1-20.2,36.2c12.8,9.8,36.9,25.7,71.2,33.1c27.5,6,50.9,4.2,65.6,1.8
		c8.6-24.3,17-52,23.9-82.8c6.5-29,10.8-56,13.5-80.4c-4.3-2.1-16.9-8.7-23.3-23.3c-0.4-0.9-9.6-22.6,0.6-35.6
		c6.1-7.7,14.7-6.8,14.7-9.2C887.7,415,826.7,392.5,785.9,422.7z" style="fill:#FFFFFF;stroke:#161616;stroke-width:2;stroke-miterlimit:10;"/>
	<path d="M812.6,412.2c-2,3.6-2.7,13.2-2.7,18.6c0,5.7,0.6,10.5,1.3,13.9c0,0,0,0,0,0c0,8.9,9.6,52.9,2.9,94.7
		c-7.7,48-33.6,85-46.2,101.1c10.1,4.7,25.2,10.3,44.3,12.8c19,2.4,34.9,0.8,45.9-1.1c7.2-20.6,14-43.3,20-68
		c8.2-33.8,13.3-65.3,16.4-93.4c-5.2-3.4-21.6-15-25.6-35.1c-1.1-5.8-3.1-15.6,2.8-24.4c5.3-8,13.8-10.5,16.8-11.2
		C849.5,405.5,818,402.4,812.6,412.2z" style="opacity:0.13;fill:#666666;"/>
	<path d="M869.1,462.4c1.3,17.5,1,39.1-3.8,63.2c-12.5,63.3-48.1,105.6-67.3,125.2c8,2.1,18.7,4.1,31.4,4.1
		c11.4,0.1,21.1-1.4,28.6-3.1c13.9-37,26.2-80.1,33.1-128.7c1.6-11.2,2.9-22.1,3.8-32.8c-4.4-2.6-10.4-6.9-16.2-13.5
		C874.2,471.6,871.1,466.5,869.1,462.4z" style="opacity:0.17;fill:#666666;"/>
	<path d="M800.9,426.6c5,9.4,14.6,15.3,24.9,15.5c16.2,0.4,29.3-13.5,27.4-18.4C851.9,420.3,842,418.3,800.9,426.6z" style="opacity:0.14;fill:#666666;"/>
</g>
<g id="head">
	<path d="M773.3,296.5c-3.2-0.3-6.2,16.9-13.1,43.5c-10.8,41.9-17.3,52.7-10.5,67.1c1.2,2.5,6,12.5,16.5,16.5
		c11,4.2,26.9,1.4,34.6-8c17.5-21.4-17.1-66-24.5-111.4C775.9,302.2,775.1,296.7,773.3,296.5z" style="fill:#0A0A0A;"/>
	<path d="M801.9,401.1c0.9,3.7,1.9,9.4,1,16.2c-0.5,4.2-1.6,7.7-2.6,10.5c4.3,1.2,10.9,2.5,18.8,2.1
		c9.3-0.5,16.6-3.2,20.9-5.2c-1.5-3.3-2.9-6.9-4.2-11c-2.3-7.1-3.5-13.7-4.2-19.4c-1.4,1.7-6.1,6.7-14.1,8.4
		C810,404.3,804,402,801.9,401.1z" style="fill:#FFFFFF;stroke:#161616;stroke-width:2;stroke-miterlimit:10;"/>
	<path d="M774.2,308c-9.9,26-9.2,61.3,10.6,86.5c3.1,4,6.1,6.9,8.1,8.7c13.8,1.3,24.4-0.9,30.8-2.8
		c4.5-1.3,9.1-2.7,14-6c10.9-7.3,15.4-18.3,17.1-23.7c3.2,2.6,5.7,3,7.4,2.9c9-0.6,18.3-17.3,12.8-28.5c-3-6.1-9.4-8.6-12-9.4
		c-2-7.9-9.3-32.3-32.3-46c-5.9-3.5-23.6-14-38.7-6.8C782,287.6,778.1,297.8,774.2,308z" style="fill:#FFFFFF;stroke:#161616;stroke-width:2;stroke-miterlimit:10;"/>
	<g>
		<g>
			<path d="M804.6,407.1c-0.3,0.1-0.7,0.2-1,0.4c-1.6,0.6-1.3,2.8,0.4,2.9c8.3,0.8,18.6-4.7,25.3-9.2
				c1.6-1.1,0.1-3.7-1.5-2.6c-6.3,4.2-16,9.5-23.8,8.8c0.1,1,0.3,2,0.4,2.9c0.3-0.1,0.7-0.2,1-0.4
				C807.2,409.3,806.4,406.4,804.6,407.1L804.6,407.1z" style="fill:#161616;"/>
		</g>
	</g>
	<g>
		<g>
			<path d="M804.9,408.5c6.4-0.9,12.7-2.6,18.7-5c1.8-0.7,1-3.6-0.8-2.9c-6.1,2.4-12.3,4.1-18.7,5
				C802.2,405.9,803,408.8,804.9,408.5L804.9,408.5z" style="fill:#161616;"/>
		</g>
	</g>
	<g>
		<g>
			<path d="M805.3,406.9c2.2,0.2,4.5,0.1,6.7-0.5c1.9-0.5,1.1-3.4-0.8-2.9c-1.9,0.5-3.9,0.6-5.9,0.4
				C803.4,403.7,803.4,406.7,805.3,406.9L805.3,406.9z" style="fill:#161616;"/>
		</g>
	</g>
	<g>
		<g>
			<path d="M823.8,355.7c1.9,0,1.9-3,0-3C821.9,352.7,821.9,355.7,823.8,355.7L823.8,355.7z" style="fill:#161616;"/>
		</g>
	</g>
	<g>
		<g>
			<path d="M833.1,354.2c0-0.1,0-0.2,0-0.2c0-0.8-0.7-1.5-1.5-1.5c-0.8,0-1.5,0.7-1.5,1.5c0,0.1,0,0.2,0,0.2
				c0,0.8,0.7,1.5,1.5,1.5C832.4,355.6,833.1,355,833.1,354.2L833.1,354.2z" style="fill:#161616;"/>
		</g>
	</g>
	<g>
		<g>
			<path d="M828.4,361.5c1.9,0,1.9-3,0-3C826.5,358.5,826.5,361.5,828.4,361.5L828.4,361.5z" style="fill:#161616;"/>
		</g>
	</g>
	<g>
		<g>
			<path d="M777.1,348.9c1.9,0,1.9-3,0-3C775.2,345.9,775.2,348.9,777.1,348.9L777.1,348.9z" style="fill:#161616;"/>
		</g>
	</g>
	<g>
		<g>
			<path d="M784.2,346.7c1.9,0,1.9-3,0-3C782.3,343.7,782.2,346.7,784.2,346.7L784.2,346.7z" style="fill:#161616;"/>
		</g>
	</g>
	<g>
		<g>
			<path d="M782.5,353.7c1.9,0,1.9-3,0-3C780.5,350.7,780.5,353.7,782.5,353.7L782.5,353.7z" style="fill:#161616;"/>
		</g>
	</g>
	<path d="M769.1,326.9c-2-2.7-6.9-10.1-6.7-20.2c0.1-7,2.5-12.1,3.8-14.8c4.5-9.2,11.3-14.2,16.9-18.1
		c5.2-3.7,14.9-10.5,28.7-11.8c18.3-1.8,32.2,7.2,41.8,13.5c18.5,12.1,26.9,27.8,28.7,31.2c3.1,6,4.7,11.2,7.2,19
		c2.7,8.6,2.7,11,7.2,30.8c4.4,19.5,5,20.2,4.6,24.5c-1.2,14.7-10.7,24.6-12.2,26.2c-13.4,13.6-30.8,12.9-36.7,12.7
		c-8-0.3-11.4-2.5-12.7-3.4c-7.9-5.7-8.4-16.4-8.4-18.6c3.1-1.8,7.2-4.6,11-8.9c7.4-8.3,9.7-17.4,10.5-21.9
		c7.7,2.3,15.4-0.7,18.6-6.3c4.5-8.2-1.8-20.1-8.9-21.1c-1.1-0.2-4.1-0.3-8,3c-3.2-7.4-8.9-18.1-19-28.7
		c-12.4-13.1-25.7-19.8-33.7-23.2c-4.5,1.9-11.2,5.5-17.7,11.8C774.5,311.6,770.7,321.7,769.1,326.9z" style="fill:#0A0A0A;"/>
	<path d="M782.6,363.6" style="fill:#5222D0;"/>
	<path d="M828.1,306.2c4.1,6.6,10.5,19.2,10.2,35.6c-0.6,38.6-37.7,60.2-40,61.4c2.4,0.4,25.8,4.1,42.1-12.5
		c8.6-8.8,11.2-19,12-23.7c1.7,0.6,5.5,1.5,9.9,0.2c1.1-0.3,7.5-2.2,9.6-8.2c1-2.7,0.7-5.2,0.5-6.6c-0.1-1.7-0.5-5.7-3.5-9.2
		c-1.1-1.2-2.8-3.2-5.6-3.8c-4.5-0.9-8,2.4-8.5,2.8c-2.3-5.5-5.8-12.3-11-19.5C838.2,315.6,832.7,310.1,828.1,306.2z" style="opacity:0.14;fill:#666666;"/>
	<path d="M825,428.6c-3-8.5-6-17.1-8.9-25.6c4.9-1.6,9.9-3.3,14.8-4.9c2.7,8.8,5.3,17.7,8,26.5
		C834.3,426,829.7,427.3,825,428.6z" style="opacity:0.18;fill:#666666;"/>
	<path d="M853.5,362.6c-2.5,5.6-6.9,13.8-14.8,21.6c-13,12.9-27.8,17.1-34.5,18.6c2.9,0.2,20.4,1.4,33.4-9.4
		c7.1-5.9,10.8-13.4,10.8-13.4c1.9-3.9,3-7.9,3.5-9.6C852.7,367.3,853.2,364.6,853.5,362.6z" style="opacity:0.21;fill:#666666;"/>
	<path d="M831.6,427.4c-2.9-8.8-5.7-17.7-8.6-26.5c2.5-0.8,5-1.7,7.5-2.5c2.7,8.8,5.5,17.6,8.2,26.4
		C836.4,425.6,834,426.5,831.6,427.4z" style="opacity:0.18;fill:#666666;"/>
	<g>
		<g>
			<path d="M801.9,327.2c-2.7,10.7-4.9,21.5-6.7,32.4c-0.3,1.8-0.9,3.9,1,4.9c2.2,1.2,7.5-0.5,9.8-1
				c1.9-0.4,1.1-3.3-0.8-2.9c-1.6,0.4-4.5,1.3-6,1.1c-2-0.3-1.5,0.1-0.9-2.2c0.8-3.4,1.2-7.1,1.9-10.5c1.4-7,2.9-14,4.6-20.9
				C805.3,326.2,802.4,325.4,801.9,327.2L801.9,327.2z" style="fill:#161616;"/>
		</g>
	</g>
	<g>
		<g>
			<path d="M776.8,337.4c3.9-4.5,10.7-4.6,14.7-0.3c1,1.1,2.6-0.5,1.6-1.6c-4.8-5.2-13.2-5.1-17.9,0.3
				C774.3,336.9,775.9,338.5,776.8,337.4L776.8,337.4z" style="fill:#161616;"/>
		</g>
	</g>
	<g>
		<g>
			<path d="M817.9,338.5c5.3-3.4,12.4-1.9,15.8,3.5c0.8,1.2,2.7,0.1,1.9-1.1c-4-6.4-12.5-8.4-18.9-4.3
				C815.5,337.3,816.7,339.3,817.9,338.5L817.9,338.5z" style="fill:#161616;"/>
		</g>
	</g>
	<g>
		<g>
			<path d="M783,320.1c3.6-1.9,7.6-1.8,11.1,0.2c1.3,0.7,2.4-1.2,1.1-1.9c-4.2-2.4-9.1-2.5-13.4-0.2
				C780.6,318.8,781.7,320.8,783,320.1L783,320.1z" style="fill:#161616;"/>
		</g>
	</g>
	<g>
		<g>
			<path d="M819.1,320.7c4.9-0.8,9.6,0.5,13.5,3.4c1.2,0.9,2.3-1.1,1.1-1.9c-4.5-3.3-9.8-4.5-15.2-3.7
				C817.1,318.8,817.7,320.9,819.1,320.7L819.1,320.7z" style="fill:#161616;"/>
		</g>
	</g>
	<g>
		<g>
			<path d="M787.2,376.2c11,3.4,22.6,0.9,31.3-6.6c1.1-0.9-0.5-2.5-1.6-1.6c-8.1,7-18.9,9.2-29.1,6
				C786.4,373.5,785.8,375.7,787.2,376.2L787.2,376.2z" style="fill:#161616;"/>
		</g>
	</g>
</g>
</svg>