<?xml version="1.0" encoding="UTF-8"?>
<!DOCTYPE svg PUBLIC "-//W3C//DTD SVG 1.1//EN" "http://www.w3.org/Graphics/SVG/1.1/DTD/svg11.dtd">
<svg xmlns="http://www.w3.org/2000/svg" version="1.1" width="368px" height="930px" style="shape-rendering:geometricPrecision; text-rendering:geometricPrecision; image-rendering:optimizeQuality; fill-rule:evenodd; clip-rule:evenodd" xmlns:xlink="http://www.w3.org/1999/xlink">
<g><path style="opacity:0.965" fill="#020202" d="M 202.5,-0.5 C 204.833,-0.5 207.167,-0.5 209.5,-0.5C 216.1,9.69859 220.767,20.6986 223.5,32.5C 223.06,37.4136 222.394,42.247 221.5,47C 246.569,42.0535 271.735,37.2202 297,32.5C 299.167,32.6667 301.333,32.8333 303.5,33C 320.833,39 338.167,45 355.5,51C 356.872,52.2419 357.872,53.7419 358.5,55.5C 348.821,73.0014 338.154,89.8347 326.5,106C 289.475,114.673 252.475,123.506 215.5,132.5C 215.166,150.679 214.5,168.846 213.5,187C 213.536,189.094 213.869,191.094 214.5,193C 242.489,200.331 270.489,207.664 298.5,215C 300.492,215.574 301.992,216.741 303,218.5C 298.535,241.863 293.035,265.03 286.5,288C 297.032,286.165 307.698,285.165 318.5,285C 335.353,291.113 351.686,298.279 367.5,306.5C 367.5,308.167 367.5,309.833 367.5,311.5C 346.895,328.602 325.561,344.769 303.5,360C 271.858,366.028 240.192,371.862 208.5,377.5C 202.471,524.521 196.305,671.521 190,818.5C 204.468,804.026 220.634,791.86 238.5,782C 242.318,780.056 246.318,779.389 250.5,780C 253.203,781.82 254.036,784.32 253,787.5C 227.398,807.758 209.731,833.425 200,864.5C 219.103,851.133 240.27,843.966 263.5,843C 266.987,845.451 267.32,848.284 264.5,851.5C 252.453,857.787 241.953,866.121 233,876.5C 223.615,888.217 214.615,900.217 206,912.5C 197.72,921.72 187.553,927.386 175.5,929.5C 166.167,929.5 156.833,929.5 147.5,929.5C 112.625,923.26 80.2921,910.427 50.5,891C 45.1352,887.089 45.3019,883.922 51,881.5C 67.9814,886.134 85.1481,889.301 102.5,891C 88.3731,883.189 75.2064,874.022 63,863.5C 61.3167,858.35 63.1501,855.35 68.5,854.5C 86.3022,861.4 103.636,869.4 120.5,878.5C 120.833,878 121.167,877.5 121.5,877C 108.661,845.541 92.4947,816.041 73,788.5C 68.3966,781.321 70.2299,778.154 78.5,779C 100.207,798.365 119.373,819.865 136,843.5C 143.439,691.511 150.606,539.511 157.5,387.5C 127.095,392.428 96.5948,396.762 66,400.5C 64.1049,400.385 62.4382,399.718 61,398.5C 59.8933,385.372 59.3933,372.206 59.5,359C 59.5101,347.456 59.8435,335.956 60.5,324.5C 61.6651,323.416 62.9984,322.583 64.5,322C 96.0472,316.255 127.714,311.255 159.5,307C 161.304,295.938 162.138,284.772 162,273.5C 124.243,261.803 86.7433,249.303 49.5,236C 44.6994,232.201 40.1994,228.034 36,223.5C 23.9675,209.971 11.8008,196.638 -0.5,183.5C -0.5,180.833 -0.5,178.167 -0.5,175.5C 18.6189,165.462 38.6189,157.795 59.5,152.5C 96.1185,161.779 132.619,171.446 169,181.5C 170.549,168.897 171.383,156.231 171.5,143.5C 149.451,147.677 127.451,152.177 105.5,157C 102.5,157.667 99.5,157.667 96.5,157C 87.4056,132.671 83.9056,107.504 86,81.5C 86.7845,79.714 87.9512,78.214 89.5,77C 118.338,69.7067 147.338,63.2067 176.5,57.5C 176.96,47.1377 177.793,36.8044 179,26.5C 186.669,17.3325 194.503,8.33249 202.5,-0.5 Z M 211.5,289.5 C 218.452,291.761 225.452,293.928 232.5,296C 225.562,297.586 218.562,298.753 211.5,299.5C 211.5,296.167 211.5,292.833 211.5,289.5 Z"/></g>
<g><path style="opacity:1" fill="#fafafa" d="M 187.5,54.5 C 186.523,51.7131 186.19,48.7131 186.5,45.5C 185.965,39.4675 187.132,33.8008 190,28.5C 195.514,23.2862 200.681,17.7862 205.5,12C 206.332,11.3123 206.998,11.479 207.5,12.5C 214.244,24.2193 215.41,36.5526 211,49.5C 203.37,51.9931 195.536,53.6598 187.5,54.5 Z"/></g>
<g><path style="opacity:1" fill="#949494" d="M 186.5,45.5 C 186.19,48.7131 186.523,51.7131 187.5,54.5C 187.44,55.0431 187.107,55.3764 186.5,55.5C 185.194,52.0202 185.194,48.6868 186.5,45.5 Z"/></g>
<g><path style="opacity:1" fill="#fbfbfb" d="M 292.5,53.5 C 304.724,52.1944 313.224,57.1944 318,68.5C 320.263,81.8121 314.763,89.6454 301.5,92C 289.506,93.2472 281.673,88.0806 278,76.5C 276.565,64.7869 281.398,57.1202 292.5,53.5 Z"/></g>
<g><path style="opacity:1" fill="#f5f5f5" d="M 119.5,82.5 C 127.34,81.6243 131.173,84.9576 131,92.5C 127.295,96.982 122.962,97.6487 118,94.5C 115.66,90.0521 116.16,86.0521 119.5,82.5 Z"/></g>
<g><path style="opacity:1" fill="#f2f2f2" d="M 122.5,100.5 C 128.271,100.085 133.771,101.085 139,103.5C 141.086,102.582 143.253,101.915 145.5,101.5C 145.918,106.915 143.418,109.581 138,109.5C 135.621,109.518 133.454,108.851 131.5,107.5C 131.167,108.333 130.833,109.167 130.5,110C 133.43,118.687 136.763,127.187 140.5,135.5C 139.127,135.657 137.793,135.49 136.5,135C 133.328,130.335 129.995,125.835 126.5,121.5C 125.091,127.771 124.091,134.104 123.5,140.5C 121.856,140.714 120.356,140.38 119,139.5C 118.443,129.793 118.443,120.127 119,110.5C 117.016,113.483 114.683,116.15 112,118.5C 110.5,118.333 109.667,117.5 109.5,116C 113.025,110.093 117.358,104.926 122.5,100.5 Z"/></g>
<g><path style="opacity:1" fill="#f8f8f8" d="M 202.5,134.5 C 204.5,134.5 206.5,134.5 208.5,134.5C 207.861,153.493 207.527,172.493 207.5,191.5C 197.433,189.483 187.433,187.15 177.5,184.5C 178.085,169.806 179.085,155.14 180.5,140.5C 187.984,138.611 195.317,136.611 202.5,134.5 Z"/></g>
<g><path style="opacity:1" fill="#fcfcfc" d="M 53.5,163.5 C 58.924,163.688 64.2573,164.522 69.5,166C 129.916,182.604 190.582,198.271 251.5,213C 265.258,216.62 278.925,220.62 292.5,225C 293.059,225.725 293.392,226.558 293.5,227.5C 288.331,248.178 283.164,268.845 278,289.5C 267.724,292.443 257.224,293.61 246.5,293C 185.167,273 123.833,253 62.5,233C 59.1667,231.333 55.8333,229.667 52.5,228C 37.0963,212.6 22.4296,196.6 8.5,180C 23.45,174.185 38.45,168.685 53.5,163.5 Z"/></g>
<g><path style="opacity:1" fill="#080808" d="M 60.5,177.5 C 73.3766,176.52 82.5433,181.853 88,193.5C 88.7975,195.259 88.6309,196.926 87.5,198.5C 77.1667,193.833 66.8333,189.167 56.5,184.5C 55.479,183.998 55.3123,183.332 56,182.5C 57.7073,180.963 59.2073,179.296 60.5,177.5 Z"/></g>
<g><path style="opacity:1" fill="#0b0b0b" d="M 52.5,187.5 C 64.7034,192.266 76.7034,197.599 88.5,203.5C 89.8333,206.5 89.8333,209.5 88.5,212.5C 76.711,207.106 65.0443,201.439 53.5,195.5C 52.52,192.914 52.1866,190.247 52.5,187.5 Z"/></g>
<g><path style="opacity:1" fill="#080808" d="M 53.5,200.5 C 64.6033,205.885 75.6033,211.552 86.5,217.5C 86.8165,220.087 85.4832,221.92 82.5,223C 68.7495,224.275 59.2495,218.441 54,205.5C 53.5065,203.866 53.3398,202.199 53.5,200.5 Z"/></g>
<g><path style="opacity:1" fill="#0a0a0a" d="M 245.5,222.5 C 252.985,222.483 256.485,226.15 256,233.5C 253.565,238.224 249.731,239.724 244.5,238C 240.139,235.774 238.639,232.274 240,227.5C 241.73,225.598 243.563,223.931 245.5,222.5 Z"/></g>
<g><path style="opacity:1" fill="#0a0a0a" d="M 225.5,235.5 C 228.818,237.812 232.152,240.146 235.5,242.5C 245.633,239.259 252.466,242.592 256,252.5C 257.667,256.5 259.333,260.5 261,264.5C 261.667,266.167 261.667,267.833 261,269.5C 259.951,270.517 258.784,270.684 257.5,270C 254.963,267.094 252.796,263.927 251,260.5C 247.514,264.139 245.68,268.472 245.5,273.5C 246.304,278.568 247.304,283.568 248.5,288.5C 247.07,288.579 245.736,288.246 244.5,287.5C 239.12,282.372 236.453,276.038 236.5,268.5C 233.57,269.547 231.07,271.213 229,273.5C 228.237,276.47 226.737,278.97 224.5,281C 223.216,281.684 222.049,281.517 221,280.5C 220.335,275.819 221.335,271.486 224,267.5C 227.815,263.928 231.815,260.595 236,257.5C 236.402,256.128 236.902,254.795 237.5,253.5C 234.743,252.971 232.243,251.971 230,250.5C 228.333,247.167 226.667,243.833 225,240.5C 224.36,238.735 224.527,237.068 225.5,235.5 Z"/></g>
<g><path style="opacity:1" fill="#fdfdfd" d="M 170.5,276.5 C 180.94,278.86 191.273,281.694 201.5,285C 202.473,290.407 202.807,295.907 202.5,301.5C 191.869,303.114 181.203,304.447 170.5,305.5C 170.5,295.833 170.5,286.167 170.5,276.5 Z"/></g>
<g><path style="opacity:1" fill="#f7f7f7" d="M 295.5,300.5 C 304.986,299.389 310.652,303.389 312.5,312.5C 301.479,314.726 290.479,317.059 279.5,319.5C 279.272,313.456 281.605,308.623 286.5,305C 289.592,303.454 292.592,301.954 295.5,300.5 Z"/></g>
<g><path style="opacity:1" fill="#f5f5f5" d="M 307.5,322.5 C 309.167,322.5 310.833,322.5 312.5,322.5C 310.753,331.415 305.419,336.915 296.5,339C 287.828,340.483 282.494,336.983 280.5,328.5C 289.742,327.022 298.742,325.022 307.5,322.5 Z"/></g>
<g><path style="opacity:1" fill="#f5f5f5" d="M 98.5,327.5 C 106.663,328.116 108.997,331.949 105.5,339C 97.2782,342.748 93.4448,340.248 94,331.5C 95.2499,329.807 96.7499,328.473 98.5,327.5 Z"/></g>
<g><path style="opacity:1" fill="#f5f5f5" d="M 98.5,345.5 C 101.649,345.211 104.649,345.711 107.5,347C 109.907,349.702 112.407,352.202 115,354.5C 116.775,353.73 118.275,352.563 119.5,351C 121.025,349.991 122.692,349.491 124.5,349.5C 123.245,354.497 120.578,358.663 116.5,362C 112.835,362.387 110.002,360.887 108,357.5C 108.622,363.712 110.289,369.712 113,375.5C 113.667,377.5 113.667,379.5 113,381.5C 111.667,382.833 110.333,382.833 109,381.5C 106.754,376.674 104.254,372.008 101.5,367.5C 99.049,372.679 96.8823,378.012 95,383.5C 93.8904,385.037 92.3904,385.703 90.5,385.5C 91.2264,377.051 92.3931,368.717 94,360.5C 91.3121,364.869 87.8121,368.036 83.5,370C 82.9415,369.275 82.6082,368.442 82.5,367.5C 85.9545,358.725 91.2878,351.392 98.5,345.5 Z"/></g>
<g><path style="opacity:1" fill="#fdfdfd" d="M 191.5,379.5 C 193.833,379.5 196.167,379.5 198.5,379.5C 192.235,529.144 186.402,678.811 181,828.5C 170.087,842.096 160.754,856.763 153,872.5C 147.334,865.843 144.501,858.176 144.5,849.5C 153.486,694.543 161.653,539.543 169,384.5C 176.606,382.876 184.106,381.21 191.5,379.5 Z"/></g>
<g><path style="opacity:1" fill="#f9f9f9" d="M 244.5,784.5 C 245.239,784.369 245.906,784.536 246.5,785C 216.952,807.242 197.785,836.408 189,872.5C 185.578,877.678 181.911,882.678 178,887.5C 174.473,893.221 171.473,899.221 169,905.5C 165.083,898.168 161.583,890.668 158.5,883C 172.976,851.058 193.309,823.391 219.5,800C 227.496,794.146 235.829,788.98 244.5,784.5 Z"/></g>
<g><path style="opacity:1" fill="#f7f7f7" d="M 77.5,787.5 C 77.8966,786.475 78.5632,786.308 79.5,787C 119.636,823.432 148.636,867.266 166.5,918.5C 166.167,918.833 165.833,919.167 165.5,919.5C 157.204,915.601 150.37,909.935 145,902.5C 136.452,889.069 129.785,874.736 125,859.5C 112.373,833.206 96.5394,809.206 77.5,787.5 Z"/></g>
<g><path style="opacity:1" fill="#f8f8f8" d="M 254.5,846.5 C 255.873,846.343 257.207,846.51 258.5,847C 250.31,851.594 242.643,856.927 235.5,863C 220.167,880.333 204.833,897.667 189.5,915C 185.952,916.941 182.286,918.607 178.5,920C 176.741,920.798 175.074,920.631 173.5,919.5C 177.356,902.14 186.022,887.64 199.5,876C 216.144,863.011 234.478,853.178 254.5,846.5 Z"/></g>
<g><path style="opacity:1" fill="#f8f8f8" d="M 67.5,861.5 C 68.0968,860.861 68.9302,860.528 70,860.5C 88.4289,867.798 106.262,876.298 123.5,886C 126.237,887.614 128.403,889.781 130,892.5C 133.574,900.653 137.907,908.32 143,915.5C 145.894,918.361 149.061,920.861 152.5,923C 118.017,919.394 86.0169,908.394 56.5,890C 55.1667,888.667 53.8333,887.333 52.5,886C 63.822,890.085 75.4887,893.418 87.5,896C 96.3801,897.444 105.213,897.61 114,896.5C 114.711,894.633 114.211,893.133 112.5,892C 96.7792,882.813 81.7792,872.646 67.5,861.5 Z"/></g>
</svg>
