<?xml version="1.0" encoding="UTF-8"?>
<!DOCTYPE svg PUBLIC "-//W3C//DTD SVG 1.1//EN" "http://www.w3.org/Graphics/SVG/1.1/DTD/svg11.dtd">
<svg xmlns="http://www.w3.org/2000/svg" version="1.1" width="368px" height="504px" style="shape-rendering:geometricPrecision; text-rendering:geometricPrecision; image-rendering:optimizeQuality; fill-rule:evenodd; clip-rule:evenodd" xmlns:xlink="http://www.w3.org/1999/xlink">
<g><path style="opacity:0.955" fill="#050505" d="M 217.5,-0.5 C 219.167,-0.5 220.833,-0.5 222.5,-0.5C 245.683,12.4236 269.683,23.7569 294.5,33.5C 295.641,35.4213 295.808,37.4213 295,39.5C 288.365,57.9713 285.865,76.9713 287.5,96.5C 303.531,97.6089 319.531,99.1089 335.5,101C 338.334,101.045 340.834,101.879 343,103.5C 341.964,118.19 340.464,132.857 338.5,147.5C 348.678,160.547 358.344,173.88 367.5,187.5C 367.5,189.167 367.5,190.833 367.5,192.5C 345.861,205.322 324.194,218.155 302.5,231C 310.83,247.154 314.997,264.321 315,282.5C 297.065,300.774 278.232,317.94 258.5,334C 248.711,338.394 239.045,343.061 229.5,348C 222.54,353.292 215.873,358.958 209.5,365C 207.194,367.139 204.527,368.639 201.5,369.5C 200.558,369.392 199.725,369.059 199,368.5C 196,360.833 193,353.167 190,345.5C 182.057,391.207 164.89,433.04 138.5,471C 157.929,474.526 175.596,482.026 191.5,493.5C 193.484,498.868 191.817,502.202 186.5,503.5C 177.833,503.5 169.167,503.5 160.5,503.5C 147.326,502.066 133.993,500.733 120.5,499.5C 117.89,500.465 115.556,501.798 113.5,503.5C 103.833,503.5 94.1667,503.5 84.5,503.5C 70.2889,502.285 55.9556,500.785 41.5,499C 34.8783,498.344 28.545,496.677 22.5,494C 19.2731,490.709 17.6065,486.709 17.5,482C 19.9947,475.284 18.4947,469.784 13,465.5C 11.767,463.134 10.9336,460.634 10.5,458C 13.3292,450.508 16.8292,443.342 21,436.5C 36.615,411.609 50.9483,385.942 64,359.5C 69.9537,345.519 74.1204,331.019 76.5,316C 76.1667,314.833 75.8333,313.667 75.5,312.5C 49.4098,322.69 27.2432,317.357 9,296.5C 4.74097,289.53 1.57431,282.196 -0.5,274.5C -0.5,266.833 -0.5,259.167 -0.5,251.5C 2.24312,240.032 5.24312,228.532 8.5,217C 4.81233,214.458 3.14566,210.958 3.5,206.5C 6.09115,185.414 16.7578,169.914 35.5,160C 41.9622,156.679 48.6289,153.846 55.5,151.5C 57.0066,147.873 56.1733,144.873 53,142.5C 43.6588,144.003 35.9921,141.003 30,133.5C 24.9351,124.805 21.7684,115.472 20.5,105.5C 21.6894,89.4773 30.0227,79.3106 45.5,75C 52.596,74.4192 59.596,74.7525 66.5,76C 74.4454,68.3647 83.112,61.698 92.5,56C 100.844,53.3495 103.344,56.1828 100,64.5C 94,71.8333 87.3333,78.5 80,84.5C 78.1068,91.0235 80.6068,95.0235 87.5,96.5C 88.6207,99.1369 88.6207,101.804 87.5,104.5C 88.7229,107.947 90.2229,111.28 92,114.5C 92.6667,116.833 92.6667,119.167 92,121.5C 89.0734,123.855 86.5734,126.522 84.5,129.5C 85.7177,133.848 88.551,135.514 93,134.5C 94.8333,134.333 96.6667,134.167 98.5,134C 99.7158,132.26 101.382,131.26 103.5,131C 120.34,132.06 137.007,134.727 153.5,139C 163.562,142.621 173.729,145.787 184,148.5C 189.195,148.775 193.195,146.775 196,142.5C 198.727,136.046 201.727,129.712 205,123.5C 206.635,122.274 208.135,120.941 209.5,119.5C 207.268,112.865 207.102,106.198 209,99.5C 211.029,96.4044 213.862,94.7377 217.5,94.5C 217.823,62.851 217.823,31.1843 217.5,-0.5 Z M 238.5,153.5 C 240.285,153.926 241.285,155.092 241.5,157C 239.008,168.451 237.174,179.951 236,191.5C 241.141,194.381 246.641,196.381 252.5,197.5C 252.334,201.514 252.501,205.514 253,209.5C 256.612,211.286 259.779,213.62 262.5,216.5C 250.611,220.963 238.611,225.13 226.5,229C 225.74,230.441 225.074,231.941 224.5,233.5C 225.38,239.048 226.38,244.548 227.5,250C 220.259,248.255 212.925,246.922 205.5,246C 196.893,251.22 188.726,257.053 181,263.5C 177.282,253.726 172.282,244.726 166,236.5C 168.878,222.545 167.378,209.045 161.5,196C 196.655,199.088 222.322,184.921 238.5,153.5 Z M 144.5,320.5 C 145.376,320.369 146.043,320.702 146.5,321.5C 141.66,345.854 133.16,368.854 121,390.5C 112.25,405.002 103.25,419.335 94,433.5C 89.8824,440.895 87.049,448.729 85.5,457C 85.5653,459.591 86.0653,462.091 87,464.5C 88.8478,467.011 90.6811,469.511 92.5,472C 91.7135,474.099 91.3801,476.266 91.5,478.5C 82.6415,476.714 73.9748,474.214 65.5,471C 84.0601,443.437 102.227,415.603 120,387.5C 131.645,366.393 139.812,344.06 144.5,320.5 Z"/></g>
<g><path style="opacity:1" fill="#fafafa" d="M 220.5,3.5 C 243.69,14.928 267.023,26.0946 290.5,37C 281.147,59.5425 271.647,82.0425 262,104.5C 260.506,103.253 259.006,103.253 257.5,104.5C 258.5,105.833 259.5,107.167 260.5,108.5C 254.629,122.407 248.629,136.24 242.5,150C 241.552,150.483 240.552,150.649 239.5,150.5C 239.666,144.824 239.499,139.157 239,133.5C 237.093,129.59 234.427,126.256 231,123.5C 229.877,118.217 228.377,113.05 226.5,108C 230.154,104 233.488,99.6666 236.5,95C 236.241,93.7387 235.574,92.7387 234.5,92C 230.463,91.3933 226.463,91.56 222.5,92.5C 221.308,70.0131 220.308,47.5131 219.5,25C 219.577,17.8074 219.91,10.6407 220.5,3.5 Z"/></g>
<g><path style="opacity:1" fill="#111111" d="M 240.5,34.5 C 241.239,34.369 241.906,34.5357 242.5,35C 244.671,38.2151 247.171,41.0484 250,43.5C 252.56,42.47 255.06,41.3034 257.5,40C 261.295,39.1963 262.629,40.5297 261.5,44C 257.806,45.5088 254.473,47.5088 251.5,50C 256.219,63.1849 254.886,63.8515 247.5,52C 244.28,51.8425 241.113,52.3425 238,53.5C 235.035,53.5616 234.202,52.3949 235.5,50C 238.601,49.1451 241.268,47.6451 243.5,45.5C 241.118,42.2065 240.118,38.5398 240.5,34.5 Z"/></g>
<g><path style="opacity:1" fill="#0b0b0b" d="M 242.5,57.5 C 243.5,57.5 244.5,57.5 245.5,57.5C 245.5,60.5 245.5,63.5 245.5,66.5C 244.5,66.5 243.5,66.5 242.5,66.5C 242.5,63.5 242.5,60.5 242.5,57.5 Z"/></g>
<g><path style="opacity:1" fill="#f3f3f3" d="M 286.5,54.5 C 286.055,78.6948 279.555,101.361 267,122.5C 265.529,120.128 264.363,120.128 263.5,122.5C 264.44,125.132 264.607,127.798 264,130.5C 257.379,145.705 250.379,160.705 243,175.5C 243.174,166.774 244.174,158.107 246,149.5C 258.789,118.535 272.289,86.8688 286.5,54.5 Z"/></g>
<g><path style="opacity:1" fill="#eeeeee" d="M 96.5,57.5 C 97.4972,57.4701 98.1639,57.9701 98.5,59C 91.8883,67.6138 84.555,75.6138 76.5,83C 73.5377,83.0901 71.2043,81.7568 69.5,79C 77.5573,70.4201 86.5573,63.2534 96.5,57.5 Z"/></g>
<g><path style="opacity:1" fill="#f9f9f9" d="M 44.5,76.5 C 51.2567,75.7509 57.59,76.9175 63.5,80C 51.3333,92.8333 39.1667,105.667 27,118.5C 20.3724,99.4112 26.2057,85.4112 44.5,76.5 Z"/></g>
<g><path style="opacity:1" fill="#0e0e0e" d="M 243.5,75.5 C 244.586,75.62 245.253,76.2867 245.5,77.5C 246.269,80.1147 246.603,82.7814 246.5,85.5C 245.5,85.5 244.5,85.5 243.5,85.5C 243.5,82.1667 243.5,78.8333 243.5,75.5 Z"/></g>
<g><path style="opacity:1" fill="#fbfbfb" d="M 69.5,84.5 C 72.9024,86.431 75.069,89.431 76,93.5C 78.2894,96.0624 81.1228,97.7291 84.5,98.5C 84.8333,99.1667 85.1667,99.8333 85.5,100.5C 84.8333,102.167 84.1667,103.833 83.5,105.5C 85.734,109.967 87.4006,114.634 88.5,119.5C 88.3333,120.5 88.1667,121.5 88,122.5C 79.3333,128.167 79.3333,133.833 88,139.5C 87.9122,142.642 86.4122,145.142 83.5,147C 77.34,150.873 70.6733,152.207 63.5,151C 59.1216,144.413 55.1216,137.58 51.5,130.5C 48.9135,129.52 46.2469,129.187 43.5,129.5C 43.3379,127.473 43.5045,125.473 44,123.5C 55.1956,117.306 63.1956,108.306 68,96.5C 69.0153,92.5598 69.5153,88.5598 69.5,84.5 Z"/></g>
<g><path style="opacity:1" fill="#1b1b1b" d="M 247.5,93.5 C 251.833,94.5 254.5,97.1667 255.5,101.5C 251.203,100.536 248.536,97.8696 247.5,93.5 Z"/></g>
<g><path style="opacity:1" fill="#f5f5f5" d="M 225.5,94.5 C 227.924,94.1924 230.257,94.5258 232.5,95.5C 230.183,98.3174 227.683,100.984 225,103.5C 224.964,109.487 225.131,115.487 225.5,121.5C 221.837,121.048 218.17,120.548 214.5,120C 212.077,113.572 211.911,107.072 214,100.5C 217.574,97.8224 221.407,95.8224 225.5,94.5 Z"/></g>
<g><path style="opacity:1" fill="#fafafa" d="M 285.5,99.5 C 302.603,100.782 319.603,102.782 336.5,105.5C 310.018,135.149 283.352,164.649 256.5,194C 252.028,193.951 247.694,192.951 243.5,191C 241.717,189.933 241.217,188.433 242,186.5C 253.877,156.079 268.377,127.079 285.5,99.5 Z"/></g>
<g><path style="opacity:1" fill="#f8f8f8" d="M 338.5,108.5 C 338.506,121.805 337.006,135.138 334,148.5C 316.056,162.443 297.556,175.61 278.5,188C 270.54,193.569 263.04,199.736 256,206.5C 255.299,203.072 255.632,199.738 257,196.5C 284.372,167.297 311.539,137.963 338.5,108.5 Z"/></g>
<g><path style="opacity:1" fill="#1a1a1a" d="M 297.5,120.5 C 301.167,120.833 303.167,122.833 303.5,126.5C 301.186,125.318 298.852,123.985 296.5,122.5C 296.863,121.817 297.196,121.15 297.5,120.5 Z"/></g>
<g><path style="opacity:1" fill="#1f1f1f" d="M 288.5,121.5 C 290.103,121.312 291.437,121.812 292.5,123C 290.273,125.447 287.607,126.78 284.5,127C 283.549,126.282 283.383,125.449 284,124.5C 285.652,123.601 287.152,122.601 288.5,121.5 Z"/></g>
<g><path style="opacity:1" fill="#fcfcfc" d="M 213.5,123.5 C 231.656,123.827 238.822,132.827 235,150.5C 225.648,172.523 209.481,186.69 186.5,193C 176.367,194.629 166.7,193.296 157.5,189C 152.786,183.074 147.953,177.241 143,171.5C 139.832,158.346 133.332,147.18 123.5,138C 128.208,137.504 132.875,137.838 137.5,139C 150.849,143.006 164.182,147.006 177.5,151C 186.373,152.648 193.873,150.148 200,143.5C 203.767,136.286 208.267,129.62 213.5,123.5 Z"/></g>
<g><path style="opacity:1" fill="#0f0f0f" d="M 276.5,128.5 C 281.422,128.11 281.756,129.277 277.5,132C 275.55,133.496 273.55,133.663 271.5,132.5C 273.015,130.918 274.681,129.584 276.5,128.5 Z"/></g>
<g><path style="opacity:1" fill="#191919" d="M 298.5,130.5 C 300.225,130.843 300.725,131.843 300,133.5C 298.611,135.227 296.944,136.561 295,137.5C 294.5,137.167 294,136.833 293.5,136.5C 295.19,134.481 296.856,132.481 298.5,130.5 Z"/></g>
<g><path style="opacity:1" fill="#eeeeee" d="M 102.5,133.5 C 109.009,132.837 114.676,134.67 119.5,139C 126.71,145.5 132.21,153 136,161.5C 132.5,158 129,154.5 125.5,151C 117.697,145.126 110.03,139.293 102.5,133.5 Z"/></g>
<g><path style="opacity:1" fill="#fdfdfd" d="M 93.5,138.5 C 97.1817,138.335 100.848,138.501 104.5,139C 127.952,154.787 146.118,175.287 159,200.5C 168.901,223.468 162.734,240.302 140.5,251C 130.546,255.073 120.213,256.739 109.5,256C 105.202,252.912 101.702,249.079 99,244.5C 95.4683,223.906 89.135,204.239 80,185.5C 73.544,175.377 65.3774,166.877 55.5,160C 56.8333,158 58.1667,156 59.5,154C 72.4532,156.89 83.2865,153.39 92,143.5C 92.6077,141.846 93.1077,140.179 93.5,138.5 Z"/></g>
<g><path style="opacity:1" fill="#1b1b1b" d="M 287.5,141.5 C 289.225,141.843 289.725,142.843 289,144.5C 287.26,146.954 285.093,148.454 282.5,149C 281.549,148.282 281.383,147.449 282,146.5C 283.73,144.598 285.563,142.931 287.5,141.5 Z"/></g>
<g><path style="opacity:1" fill="#181818" d="M 275.5,152.5 C 276.5,152.5 277.5,152.5 278.5,152.5C 277.344,156.002 275.344,159.002 272.5,161.5C 271.5,161.167 270.833,160.5 270.5,159.5C 271.804,156.87 273.47,154.537 275.5,152.5 Z"/></g>
<g><path style="opacity:1" fill="#f9f9f9" d="M 334.5,154.5 C 335.873,154.343 337.207,154.51 338.5,155C 346.939,164.716 354.772,174.882 362,185.5C 362.781,186.944 362.614,188.277 361.5,189.5C 331.103,196.434 301.103,204.934 271.5,215C 265.866,214.85 261.199,212.516 257.5,208C 266.16,199.157 275.827,191.49 286.5,185C 297.003,178.581 307.67,172.414 318.5,166.5C 319.452,168.045 319.785,169.712 319.5,171.5C 320.5,171.5 321.5,171.5 322.5,171.5C 322.336,168.813 322.503,166.146 323,163.5C 327.175,160.842 331.008,157.842 334.5,154.5 Z"/></g>
<g><path style="opacity:1" fill="#f9f9f9" d="M 53.5,154.5 C 54.0431,154.56 54.3764,154.893 54.5,155.5C 52.4095,158.825 49.4095,160.992 45.5,162C 41.7168,164.919 40.7168,168.586 42.5,173C 35.8403,185.286 32.3403,198.453 32,212.5C 23.8847,214.378 16.0514,213.545 8.5,210C 8.5584,189.569 17.5584,174.235 35.5,164C 41.4348,160.535 47.4348,157.368 53.5,154.5 Z"/></g>
<g><path style="opacity:1" fill="#141414" d="M 312.5,156.5 C 314.5,156.5 316.5,156.5 318.5,156.5C 318.126,159.62 316.293,160.954 313,160.5C 308.769,159.91 308.602,158.577 312.5,156.5 Z"/></g>
<g><path style="opacity:1" fill="#1d1d1d" d="M 299.5,161.5 C 301.288,161.215 302.955,161.548 304.5,162.5C 302.953,164.194 301.12,165.527 299,166.5C 297.72,166.387 296.887,165.72 296.5,164.5C 297.34,163.265 298.34,162.265 299.5,161.5 Z"/></g>
<g><path style="opacity:1" fill="#f2f2f2" d="M 49.5,162.5 C 57.8883,164.786 64.7217,169.452 70,176.5C 84.1074,195.153 92.1074,216.153 94,239.5C 92.6667,237.5 91.3333,235.5 90,233.5C 84.3071,211.273 73.8071,191.773 58.5,175C 54.4613,171.981 50.1279,169.481 45.5,167.5C 46.6125,165.581 47.9458,163.914 49.5,162.5 Z"/></g>
<g><path style="opacity:1" fill="#1d1d1d" d="M 268.5,164.5 C 270.89,164.685 271.89,166.018 271.5,168.5C 270.313,173.752 268.979,173.752 267.5,168.5C 267.846,167.151 268.179,165.817 268.5,164.5 Z"/></g>
<g><path style="opacity:1" fill="#212121" d="M 286.5,168.5 C 288.288,168.215 289.955,168.548 291.5,169.5C 289.33,171.086 286.996,172.42 284.5,173.5C 283.417,172.635 283.251,171.635 284,170.5C 284.995,169.934 285.828,169.267 286.5,168.5 Z"/></g>
<g><path style="opacity:1" fill="#fdfdfd" d="M 45.5,172.5 C 48.8992,174.031 52.2325,175.865 55.5,178C 66.4529,187.049 74.6196,198.216 80,211.5C 83.3333,220.833 86.6667,230.167 90,239.5C 98.0311,251.533 108.531,260.7 121.5,267C 132.5,271.333 143.5,275.667 154.5,280C 158.522,282.67 160.855,286.337 161.5,291C 160.847,296.485 160.347,301.985 160,307.5C 158.526,311.641 155.693,314.474 151.5,316C 136.496,317.799 122.163,315.466 108.5,309C 69.2369,290.951 45.4036,260.784 37,218.5C 34.3834,202.088 37.2167,186.755 45.5,172.5 Z"/></g>
<g><path style="opacity:1" fill="#161616" d="M 318.5,174.5 C 321.607,174.351 324.607,174.851 327.5,176C 331.212,178.513 332.378,182.013 331,186.5C 324.297,194.399 317.63,194.399 311,186.5C 310.294,184.029 310.627,181.695 312,179.5C 313.965,177.45 316.132,175.783 318.5,174.5 Z"/></g>
<g><path style="opacity:1" fill="#f2f2f2" d="M 317.5,179.5 C 320.649,179.211 323.649,179.711 326.5,181C 328.028,183.881 327.362,186.214 324.5,188C 321.833,188.667 319.167,188.667 316.5,188C 313.815,184.883 314.148,182.05 317.5,179.5 Z"/></g>
<g><path style="opacity:1" fill="#131313" d="M 299.5,192.5 C 301.288,192.215 302.955,192.548 304.5,193.5C 301.822,196.67 298.489,198.503 294.5,199C 294.043,198.586 293.709,198.086 293.5,197.5C 295.544,195.781 297.544,194.114 299.5,192.5 Z"/></g>
<g><path style="opacity:1" fill="#f5f5f5" d="M 275.5,226.5 C 266.318,226.827 257.318,226.493 248.5,225.5C 266.014,219.604 283.681,214.437 301.5,210C 300.253,211.494 300.253,212.994 301.5,214.5C 304.172,212.327 306.506,209.827 308.5,207C 323.632,201.789 338.965,197.289 354.5,193.5C 355.5,193.667 356.5,193.833 357.5,194C 338.424,205.4 319.09,216.4 299.5,227C 295.514,227.499 291.514,227.666 287.5,227.5C 287.5,226.167 287.5,224.833 287.5,223.5C 283.516,224.488 279.516,225.488 275.5,226.5 Z"/></g>
<g><path style="opacity:1" fill="#181818" d="M 288.5,201.5 C 289.497,201.47 290.164,201.97 290.5,203C 289.708,204.96 288.375,206.46 286.5,207.5C 286.167,207 285.833,206.5 285.5,206C 286.315,204.357 287.315,202.857 288.5,201.5 Z"/></g>
<g><path style="opacity:1" fill="#212121" d="M 292.5,216.5 C 294.288,216.215 295.955,216.548 297.5,217.5C 295.46,220.348 292.793,221.848 289.5,222C 288.549,221.282 288.383,220.449 289,219.5C 290.518,218.837 291.685,217.837 292.5,216.5 Z"/></g>
<g><path style="opacity:1" fill="#8f8f8f" d="M 248.5,225.5 C 257.318,226.493 266.318,226.827 275.5,226.5C 265.675,227.658 255.675,227.825 245.5,227C 246.244,225.961 247.244,225.461 248.5,225.5 Z"/></g>
<g><path style="opacity:1" fill="#f8f8f8" d="M 246.5,229.5 C 255.839,229.334 265.173,229.5 274.5,230C 275.282,232.74 275.782,235.574 276,238.5C 277,239.833 278,239.833 279,238.5C 279.497,235.854 279.664,233.187 279.5,230.5C 285.509,230.334 291.509,230.501 297.5,231C 305.678,245.036 310.344,260.203 311.5,276.5C 289.927,271.254 268.593,265.088 247.5,258C 243.956,256.747 243.623,254.913 246.5,252.5C 245.833,252.167 245.167,251.833 244.5,251.5C 242.253,252.245 240.419,253.578 239,255.5C 236.755,254.863 234.588,254.03 232.5,253C 230.52,245.953 229.353,238.786 229,231.5C 234.933,230.852 240.766,230.186 246.5,229.5 Z"/></g>
<g><path style="opacity:1" fill="#171717" d="M 271.5,243.5 C 272.5,243.5 273.5,243.5 274.5,243.5C 274.649,244.552 274.483,245.552 274,246.5C 272.247,247.627 270.413,248.627 268.5,249.5C 267.5,249.167 266.833,248.5 266.5,247.5C 268.015,245.918 269.681,244.584 271.5,243.5 Z"/></g>
<g><path style="opacity:1" fill="#101010" d="M 250.5,247.5 C 253.898,247.18 257.232,247.513 260.5,248.5C 258.109,251.239 255.109,252.072 251.5,251C 250.663,249.989 250.33,248.822 250.5,247.5 Z"/></g>
<g><path style="opacity:1" fill="#fbfbfb" d="M 204.5,250.5 C 206.371,250.859 207.871,251.859 209,253.5C 217.841,267.183 227.174,280.516 237,293.5C 244.542,304.748 251.709,316.248 258.5,328C 238.465,337.048 220.298,348.881 204,363.5C 197.945,350.057 192.445,336.391 187.5,322.5C 191.463,323.44 195.463,323.607 199.5,323C 202.29,320.79 203.123,317.956 202,314.5C 192.405,311.539 184.072,306.539 177,299.5C 172.833,292.67 170.5,285.336 170,277.5C 181.113,267.873 192.613,258.873 204.5,250.5 Z"/></g>
<g><path style="opacity:1" fill="#fbfbfb" d="M 210.5,250.5 C 228.011,255.725 245.677,261.558 263.5,268C 266.337,269.672 268.67,271.839 270.5,274.5C 271.429,273.311 271.762,271.978 271.5,270.5C 284.227,274.019 296.894,277.853 309.5,282C 294.29,296.879 278.79,311.379 263,325.5C 252.47,311.295 242.304,296.795 232.5,282C 240.134,280.86 240.134,278.86 232.5,276C 230.567,275.749 228.734,275.249 227,274.5C 221.724,266.26 216.224,258.26 210.5,250.5 Z"/></g>
<g><path style="opacity:1" fill="#fbfbfb" d="M 41.5,263.5 C 44.1873,263.336 46.854,263.503 49.5,264C 57.4991,275.811 66.9991,286.311 78,295.5C 78.8265,299.541 78.6599,303.541 77.5,307.5C 68.9064,311.276 60.2398,311.443 51.5,308C 34.9585,300.567 23.9585,288.234 18.5,271C 18.8333,270.167 19.1667,269.333 19.5,268.5C 26.9992,267.035 34.3325,265.368 41.5,263.5 Z"/></g>
<g><path style="opacity:1" fill="#151515" d="M 268.5,277.5 C 270.252,277.418 271.252,278.251 271.5,280C 271.174,282.844 269.84,285.011 267.5,286.5C 267.167,285.833 266.833,285.167 266.5,284.5C 267.173,282.149 267.84,279.816 268.5,277.5 Z"/></g>
<g><path style="opacity:1" fill="#151515" d="M 219.5,281.5 C 220.833,281.5 222.167,281.5 223.5,281.5C 222.53,284.661 220.863,287.494 218.5,290C 216.866,290.494 215.199,290.66 213.5,290.5C 213.351,289.448 213.517,288.448 214,287.5C 215.699,285.304 217.533,283.304 219.5,281.5 Z"/></g>
<g><path style="opacity:1" fill="#171717" d="M 246.5,282.5 C 250.857,282.586 255.19,282.92 259.5,283.5C 259.5,284.5 259.5,285.5 259.5,286.5C 255.44,286.515 251.44,286.015 247.5,285C 246.748,284.329 246.414,283.496 246.5,282.5 Z"/></g>
<g><path style="opacity:1" fill="#f4f4f4" d="M 166.5,291.5 C 167.978,291.238 169.311,291.571 170.5,292.5C 172.11,298.224 175.11,303.057 179.5,307C 185.221,310.527 191.221,313.527 197.5,316C 198.337,317.011 198.67,318.178 198.5,319.5C 187.058,320.139 176.392,317.639 166.5,312C 165.184,305.167 165.184,298.334 166.5,291.5 Z"/></g>
<g><path style="opacity:1" fill="#151515" d="M 213.5,297.5 C 214.822,297.33 215.989,297.663 217,298.5C 217.667,301.167 217.667,303.833 217,306.5C 214.91,307.791 213.576,307.124 213,304.5C 212.444,302.115 212.61,299.782 213.5,297.5 Z"/></g>
<g><path style="opacity:1" fill="#0d0d0d" d="M 223.5,311.5 C 224.675,311.281 225.675,311.614 226.5,312.5C 225.62,314.429 224.62,316.263 223.5,318C 225.514,319.678 227.681,321.178 230,322.5C 230.483,323.448 230.649,324.448 230.5,325.5C 227.272,325.701 224.105,325.367 221,324.5C 218.491,325.829 216.658,327.829 215.5,330.5C 214.311,331.429 212.978,331.762 211.5,331.5C 211.629,328.234 212.629,325.234 214.5,322.5C 212.497,320.867 211.164,318.867 210.5,316.5C 216.139,317.761 220.472,316.094 223.5,311.5 Z"/></g>
<g><path style="opacity:1" fill="#f9f9f9" d="M 22.5,472.5 C 33.9068,476.971 45.5735,477.638 57.5,474.5C 71.7793,477.736 85.7793,481.903 99.5,487C 105.529,489.679 110.862,493.346 115.5,498C 107.245,499.572 98.9113,499.905 90.5,499C 70.4354,497.9 50.4354,496.234 30.5,494C 28.04,492.542 25.8734,490.709 24,488.5C 22.661,483.264 22.161,477.93 22.5,472.5 Z"/></g>
<g><path style="opacity:1" fill="#777777" d="M 97.5,472.5 C 96.5233,475.287 96.19,478.287 96.5,481.5C 95.1944,478.313 95.1944,474.98 96.5,471.5C 97.1067,471.624 97.44,471.957 97.5,472.5 Z"/></g>
<g><path style="opacity:1" fill="#f8f8f8" d="M 97.5,472.5 C 108.607,475.728 119.941,476.395 131.5,474.5C 152.999,477.923 172.666,485.756 190.5,498C 179.225,499.576 167.892,499.909 156.5,499C 143.819,497.799 131.152,496.465 118.5,495C 111.27,490.224 103.937,485.724 96.5,481.5C 96.19,478.287 96.5233,475.287 97.5,472.5 Z"/></g>
</svg>
