<?xml version="1.0" standalone="no"?>
<!DOCTYPE svg PUBLIC "-//W3C//DTD SVG 20010904//EN"
 "http://www.w3.org/TR/2001/REC-SVG-20010904/DTD/svg10.dtd">
<svg version="1.0" xmlns="http://www.w3.org/2000/svg"
 width="368.000000pt" height="368.000000pt" viewBox="0 0 368.000000 368.000000"
 preserveAspectRatio="xMidYMid meet">

<g transform="translate(0.000000,368.000000) scale(0.100000,-0.100000)"
fill="#000000" stroke="none">
<path d="M1032 3192 c-7 -5 7 -9 37 -10 27 0 64 -8 81 -17 29 -15 31 -19 25
-54 -5 -33 -3 -39 14 -44 24 -6 48 -83 33 -107 -12 -20 -64 -24 -127 -12 -27
6 -67 13 -87 17 -37 6 -38 7 -38 50 0 41 2 45 24 45 35 0 39 12 18 66 -20 50
-38 46 -27 -6 4 -18 2 -30 -3 -30 -25 0 -42 -33 -42 -81 0 -45 3 -52 30 -67
23 -13 30 -24 30 -48 0 -33 -18 -47 -90 -69 -46 -14 -83 -68 -77 -111 3 -18
17 -56 31 -85 43 -93 47 -107 34 -135 -9 -20 -9 -30 0 -45 20 -31 14 -44 -37
-80 l-49 -34 196 -3 c192 -2 197 -3 220 -26 21 -20 22 -27 12 -46 -10 -18 -17
-21 -43 -16 -29 6 -308 24 -381 25 -26 1 -28 4 -24 33 4 27 3 29 -8 14 -28
-39 8 -76 74 -76 29 0 33 -3 30 -22 -3 -22 -6 -23 -83 -19 -44 2 -96 9 -117
17 -23 8 -38 9 -38 3 0 -15 58 -36 136 -50 38 -6 72 -14 76 -18 10 -9 -63
-178 -108 -246 -21 -33 -58 -83 -81 -112 -24 -28 -50 -67 -57 -85 -8 -18 -28
-51 -45 -72 -60 -75 -74 -107 -80 -174 -7 -72 -5 -71 -92 -85 -37 -5 -37 -5
-42 36 -11 82 -38 192 -51 205 -11 11 -24 12 -71 2 l-57 -12 5 -41 c2 -23 11
-76 19 -117 9 -41 21 -115 28 -165 7 -49 17 -95 22 -101 6 -8 39 -5 121 11 61
13 200 37 307 54 107 17 229 38 270 45 166 32 148 35 216 -36 34 -35 70 -84
82 -111 11 -26 27 -47 34 -47 24 0 101 87 94 105 -7 20 -57 17 -64 -4 -3 -10
1 -12 17 -8 16 4 21 1 21 -13 0 -12 -8 -20 -22 -22 -12 -2 -28 -14 -34 -26
-12 -24 -12 -23 -24 14 -15 46 -69 131 -99 159 -21 18 -21 20 -4 26 10 4 33 8
51 8 17 1 32 5 32 10 0 12 -104 5 -255 -16 -60 -8 -122 -17 -137 -18 -15 -2
-69 -11 -120 -19 -51 -8 -118 -18 -148 -22 -30 -4 -57 -8 -60 -9 -3 -1 -25 -5
-50 -9 -25 -5 -83 -17 -129 -28 -45 -10 -85 -17 -87 -15 -3 2 19 13 48 23 51
19 53 20 56 60 3 38 6 42 35 47 18 3 47 9 65 13 26 5 32 3 32 -10 0 -17 15
-19 130 -17 73 2 125 7 253 26 58 9 100 10 120 4 41 -12 40 -12 33 6 -4 10 3
17 22 21 143 34 179 46 194 64 11 13 28 20 52 20 20 0 123 9 229 20 105 11
218 20 250 21 32 1 61 7 64 12 4 7 -36 8 -118 3 l-124 -7 -1 246 c0 135 4 245
8 245 4 0 8 -7 8 -16 0 -14 3 -14 15 -4 14 12 11 18 -22 52 -46 47 -42 48
-209 -32 -68 -33 -128 -60 -134 -60 -5 0 -11 -4 -14 -9 -8 -12 126 31 194 63
30 14 60 26 66 26 15 0 24 -24 24 -65 0 -18 3 -48 8 -66 6 -31 7 -28 12 29 3
34 10 63 15 65 6 1 11 -84 13 -235 1 -157 -1 -238 -8 -238 -5 0 -10 3 -11 8 0
4 -2 63 -4 130 -2 68 -6 126 -9 130 -3 3 -6 -54 -6 -127 0 -157 12 -145 -162
-154 l-118 -5 0 48 c0 58 -10 85 -44 124 -15 17 -26 41 -26 58 0 19 -12 44
-34 70 -39 45 -56 106 -56 199 l0 60 60 -63 c60 -62 60 -62 46 -25 -8 20 -34
59 -56 86 -41 49 -42 50 -35 106 l8 57 53 -6 c46 -5 55 -4 64 13 17 33 11 56
-25 98 -19 23 -35 44 -35 48 0 5 10 27 21 50 16 31 19 47 11 60 -7 14 2 36 44
103 74 118 73 127 -17 209 -35 32 -47 51 -53 83 -5 30 -3 37 16 45 36 16 38
92 4 132 -20 24 -24 37 -20 65 8 49 -29 78 -100 78 -28 0 -57 -4 -64 -8z m140
-284 c4 -7 8 -23 8 -36 0 -20 -4 -23 -27 -18 -16 3 -51 8 -79 11 -46 6 -51 8
-47 29 4 22 10 24 71 25 43 1 68 -3 74 -11z m21 -88 c10 -10 -2 -11 -58 -6
-38 3 -85 6 -102 6 -18 0 -33 5 -33 11 0 16 178 6 193 -11z m-113 -20 c228
-16 253 -50 157 -219 l-42 -74 -112 6 c-61 3 -119 10 -130 15 -10 6 -38 49
-61 97 -49 96 -51 141 -9 170 25 17 28 17 197 5z m33 -306 c84 -6 97 -9 97
-25 0 -16 -9 -17 -107 -13 -114 5 -193 13 -193 19 0 2 3 11 6 20 5 13 16 15
53 11 25 -3 90 -8 144 -12z m66 -80 c1 -1 0 -7 -4 -13 -12 -20 -235 -5 -242
16 -3 9 25 11 119 6 68 -3 125 -7 127 -9z m-20 -43 c14 -4 26 -12 29 -19 3
-10 -8 -12 -45 -8 -26 3 -92 8 -145 12 -54 3 -98 10 -98 15 0 10 222 11 259 0z
m-72 -148 c13 -3 20 -10 17 -15 -4 -5 -12 -50 -19 -99 -15 -109 0 -204 44
-285 l28 -52 -86 -13 c-85 -12 -358 -8 -380 5 -6 4 8 30 36 64 66 81 97 132
139 232 l37 87 48 -5 c63 -6 65 14 3 29 -33 9 -44 16 -40 26 3 8 6 22 6 30 0
13 11 15 73 9 39 -4 82 -10 94 -13z m493 -188 c0 -8 -4 -15 -10 -15 -5 0 -10
7 -10 15 0 8 5 15 10 15 6 0 10 -7 10 -15z m-400 -309 c0 -13 12 -41 28 -62
24 -34 27 -48 27 -117 0 -58 -4 -80 -15 -87 -8 -5 -61 -20 -118 -34 l-102 -25
-50 21 c-27 11 -47 24 -45 28 3 5 29 11 58 15 93 11 257 48 257 57 0 5 -12 7
-27 4 -227 -47 -387 -57 -438 -28 -32 17 -86 32 -80 22 4 -6 12 -10 18 -10 7
-1 29 -9 50 -18 l37 -18 -114 -12 c-152 -16 -146 -17 -146 14 0 52 25 107 70
158 25 28 51 63 57 77 11 26 13 26 60 17 69 -14 267 -11 343 6 36 7 80 14 98
15 27 1 32 -2 32 -23z m-876 -133 c8 -26 34 -189 41 -259 l7 -61 -51 -10 -51
-10 0 56 c0 49 -36 227 -55 273 -5 13 0 17 27 21 68 8 77 7 82 -10z m566 -206
c-89 -13 -340 -34 -345 -28 -3 2 -5 17 -5 33 l0 28 73 1 c39 0 110 6 157 12
83 12 86 12 130 -13 l45 -25 -55 -8z"/>
<path d="M280 1361 c0 -55 16 -91 33 -74 10 10 8 78 -3 107 -16 44 -30 29 -30
-33z"/>
<path d="M2910 3133 c-39 -15 -60 -47 -60 -90 0 -39 -2 -43 -25 -43 -31 0 -78
-25 -130 -68 -37 -30 -40 -36 -42 -88 -1 -39 7 -83 26 -143 18 -55 27 -99 24
-122 -3 -20 0 -39 5 -43 19 -12 -1 -47 -44 -76 -70 -49 -68 -100 5 -100 49 0
63 -12 59 -46 -3 -27 -6 -29 -40 -27 -20 1 -62 11 -92 21 -51 17 -55 17 -41 2
17 -19 104 -50 141 -50 28 0 30 -15 12 -121 -10 -64 -15 -74 -50 -101 -41 -34
-44 -51 -3 -24 33 22 32 9 -9 -77 -18 -40 -37 -83 -41 -97 -4 -14 -21 -51 -37
-84 -32 -63 -35 -88 -23 -180 l8 -59 -78 6 c-43 4 -102 7 -130 7 l-53 0 4 138
c2 76 0 158 -4 183 -7 36 -9 21 -15 -88 -3 -72 -4 -154 0 -182 4 -35 2 -51 -6
-51 -15 0 -16 456 -1 465 6 4 10 -14 10 -46 0 -69 9 -57 21 27 5 37 11 69 13
71 2 2 64 -7 137 -21 143 -28 195 -33 114 -11 -27 7 -84 23 -125 34 -41 11
-104 21 -138 23 -62 3 -65 2 -90 -30 l-26 -33 26 6 c24 6 25 5 31 -57 3 -35 2
-135 -3 -223 -5 -87 -7 -170 -4 -182 l6 -23 -121 0 c-67 0 -121 -3 -121 -8 0
-4 23 -8 50 -10 28 -1 90 -6 138 -12 48 -5 149 -10 225 -10 128 0 142 -2 195
-27 31 -14 59 -27 61 -29 1 -1 -8 -18 -22 -36 -33 -43 -77 -137 -77 -165 0
-32 23 -50 82 -62 48 -10 87 -21 244 -66 72 -21 84 -38 51 -70 -14 -14 -24
-34 -22 -43 3 -21 -12 -52 -27 -52 -7 0 -6 5 2 15 15 18 7 30 -15 22 -19 -8
-20 -41 -1 -56 21 -18 51 2 65 41 6 17 17 39 25 47 38 45 15 87 -64 114 -56
19 -220 57 -248 57 -40 0 -72 22 -72 49 0 27 76 167 103 190 12 9 28 10 74 1
85 -16 313 -23 428 -13 62 6 116 5 142 -1 39 -8 42 -12 45 -45 3 -33 6 -37 51
-50 68 -21 64 -44 -5 -25 -64 18 -331 53 -443 59 l-80 4 60 -13 c43 -9 83 -28
139 -67 83 -56 102 -79 68 -79 -12 0 -29 -11 -40 -25 -11 -14 -26 -25 -33 -25
-11 0 -11 2 1 10 21 13 9 19 -19 9 -31 -12 -16 -30 27 -31 22 -1 40 8 61 30
17 17 31 35 31 41 0 10 -69 78 -106 105 -15 11 -10 12 32 6 27 -4 52 -6 56 -4
3 2 17 0 31 -5 13 -5 44 -12 68 -14 24 -3 75 -15 112 -27 94 -29 111 -25 114
25 7 123 27 292 39 338 9 33 10 55 4 61 -6 6 -34 10 -63 11 -48 0 -52 -2 -54
-25 l-3 -25 10 23 c7 16 16 22 27 18 10 -3 30 -8 44 -11 25 -6 26 -9 17 -43
-21 -88 -37 -172 -43 -234 l-7 -68 -38 0 c-21 0 -41 4 -44 8 -2 4 2 55 9 112
8 58 16 125 19 150 l6 45 -14 -50 c-9 -27 -18 -76 -21 -108 -5 -48 -9 -57 -23
-53 -9 3 -29 8 -43 11 -21 5 -28 14 -32 38 -2 18 -1 40 4 49 20 38 10 75 -36
126 -24 27 -53 69 -63 93 -11 24 -46 71 -78 104 -50 51 -63 73 -86 140 -24 71
-49 185 -61 283 l-4 33 49 -4 c34 -3 53 0 63 10 25 24 17 41 -32 77 -27 19
-53 43 -60 54 -13 21 -7 62 9 62 6 0 8 11 6 24 -4 19 5 34 39 68 46 45 76 88
87 125 5 16 0 29 -16 45 -12 12 -24 31 -25 42 -6 35 -52 104 -88 132 -34 26
-34 26 -15 47 25 26 26 87 3 115 -19 23 -59 34 -83 25z m58 -25 c7 -7 12 -20
12 -30 0 -15 -8 -18 -50 -16 -55 3 -64 17 -28 42 27 19 50 20 66 4z m-28 -78
c0 -5 -2 -10 -4 -10 -3 0 -8 5 -11 10 -3 6 -1 10 4 10 6 0 11 -4 11 -10z m-40
-80 c0 -5 -4 -10 -10 -10 -5 0 -10 5 -10 10 0 6 5 10 10 10 6 0 10 -4 10 -10z
m-185 -80 c-3 -5 -10 -10 -16 -10 -5 0 -9 5 -9 10 0 6 7 10 16 10 8 0 12 -4 9
-10z m32 -21 c-14 -23 -37 -33 -37 -16 0 8 -4 6 -10 -3 -7 -10 -10 -11 -10 -2
0 7 12 17 26 22 14 6 22 14 19 20 -3 5 0 7 9 4 12 -5 13 -9 3 -25z m155 7 c3
-15 0 -27 -8 -30 -17 -6 -28 10 -13 19 5 4 8 13 5 21 -3 8 -2 14 3 14 5 0 11
-11 13 -24z m38 20 c0 -3 -4 -8 -10 -11 -5 -3 -10 -1 -10 4 0 6 5 11 10 11 6
0 10 -2 10 -4z m84 -12 c7 -18 0 -34 -14 -34 -6 0 -9 11 -8 25 3 28 13 33 22
9z m-231 -35 c-4 -13 -9 -17 -16 -10 -12 12 -1 45 12 37 5 -3 7 -15 4 -27z
m257 1 c0 -5 -5 -10 -11 -10 -5 0 -7 5 -4 10 3 6 8 10 11 10 2 0 4 -4 4 -10z
m-220 -24 c0 -3 -4 -8 -10 -11 -5 -3 -10 -1 -10 4 0 6 5 11 10 11 6 0 10 -2
10 -4z m200 -12 c0 -2 -17 -4 -37 -4 -24 0 -33 3 -25 9 12 7 62 4 62 -5z
m-200 -114 c0 -5 -4 -10 -10 -10 -5 0 -10 5 -10 10 0 6 5 10 10 10 6 0 10 -4
10 -10z m102 -62 c-7 -7 -12 -8 -12 -2 0 6 3 14 7 17 3 4 9 5 12 2 2 -3 -1
-11 -7 -17z m88 18 c0 -3 -4 -8 -10 -11 -5 -3 -10 -1 -10 4 0 6 5 11 10 11 6
0 10 -2 10 -4z m-196 -71 c-4 -8 -11 -15 -16 -15 -6 0 -5 6 2 15 7 8 14 15 16
15 2 0 1 -7 -2 -15z m46 -5 c0 -5 -10 -10 -22 -9 -22 0 -22 1 -3 9 11 5 21 9
23 9 1 1 2 -3 2 -9z m77 -6 c-3 -3 -12 -4 -19 -1 -8 3 -5 6 6 6 11 1 17 -2 13
-5z m-130 -262 c46 12 51 5 20 -26 -29 -29 -39 -33 -31 -12 4 9 -2 16 -17 18
-12 2 -24 10 -27 18 -3 11 -2 12 8 4 8 -8 22 -9 47 -2z m109 -21 c15 -11 20
-22 14 -26 -5 -3 -10 0 -10 7 0 9 -3 9 -10 -2 -5 -8 -10 -10 -10 -3 0 18 -28
9 -52 -17 -14 -14 -23 -19 -26 -12 -3 11 52 72 65 72 3 0 16 -9 29 -19z m-151
-21 c3 -5 1 -10 -4 -10 -6 0 -11 5 -11 10 0 6 2 10 4 10 3 0 8 -4 11 -10z m-5
-24 c0 -3 -4 -8 -10 -11 -5 -3 -10 -1 -10 4 0 6 5 11 10 11 6 0 10 -2 10 -4z
m90 -110 c0 -3 -4 -8 -10 -11 -5 -3 -10 -1 -10 4 0 6 5 11 10 11 6 0 10 -2 10
-4z m97 -13 c-4 -3 -2 -12 4 -20 13 -15 1 -17 -21 -3 -13 9 -13 11 0 20 17 11
26 13 17 3z m-177 -23 c0 -5 -5 -10 -11 -10 -5 0 -7 5 -4 10 3 6 8 10 11 10 2
0 4 -4 4 -10z m98 -24 c-7 -8 -17 -12 -22 -9 -4 3 -2 9 5 14 22 13 31 11 17
-5z m112 4 c0 -4 -11 -11 -25 -14 -14 -4 -24 -10 -22 -15 2 -11 -10 -12 -40
-4 -13 3 -20 9 -17 15 4 5 10 5 18 -1 8 -7 15 -5 22 7 11 17 64 27 64 12z
m-705 -20 c0 -7 -6 -15 -12 -17 -8 -3 -13 4 -13 17 0 13 5 20 13 18 6 -3 12
-11 12 -18z m450 10 c-3 -5 -11 -10 -16 -10 -6 0 -7 5 -4 10 3 6 11 10 16 10
6 0 7 -4 4 -10z m105 6 c0 -3 -4 -8 -10 -11 -5 -3 -10 -1 -10 4 0 6 5 11 10
11 6 0 10 -2 10 -4z m-92 -194 c9 8 16 8 20 1 4 -5 14 -13 22 -16 8 -3 1 -6
-17 -6 -38 -1 -63 7 -63 22 0 8 4 7 12 -1 9 -9 15 -9 26 0z m173 -25 c-10 -9
-11 -8 -5 6 3 10 9 15 12 12 3 -3 0 -11 -7 -18z m177 -2 c-3 -3 -9 2 -12 12
-6 14 -5 15 5 6 7 -7 10 -15 7 -18z m-248 11 c0 -3 -4 -8 -10 -11 -5 -3 -10
-1 -10 4 0 6 5 11 10 11 6 0 10 -2 10 -4z m-177 -31 c-7 -21 -13 -19 -13 6 0
11 4 18 10 14 5 -3 7 -12 3 -20z m91 -10 c15 -8 32 -12 37 -9 18 11 9 -36 -11
-56 -22 -22 -35 -27 -24 -8 11 17 12 48 3 42 -5 -3 -18 0 -29 6 -15 8 -20 8
-20 -1 0 -7 -3 -10 -6 -6 -4 3 -13 0 -21 -8 -19 -19 -40 -20 -24 -2 6 8 8 17
4 21 -4 4 3 9 15 13 12 3 22 9 22 14 0 13 21 11 54 -6z m164 -38 c2 -10 8 -14
14 -11 7 4 8 -2 3 -17 -10 -31 -9 -31 -29 -23 -11 4 -16 14 -13 25 3 12 0 19
-9 19 -8 0 -14 -5 -14 -11 0 -5 -4 -7 -10 -4 -5 3 -10 1 -10 -4 0 -6 -4 -11
-9 -11 -5 0 -7 9 -4 20 3 11 0 20 -6 20 -6 0 -11 5 -11 11 0 6 18 9 48 6 34
-3 48 -8 50 -20z m212 14 c0 -5 -16 -8 -35 -7 -42 4 -64 -16 -45 -39 10 -13 9
-15 -9 -15 -12 0 -21 6 -20 13 3 24 -1 37 -12 37 -6 0 -9 -9 -6 -20 3 -11 1
-20 -5 -20 -6 0 -8 11 -6 25 7 32 -19 34 -32 3 -5 -13 -9 -18 -9 -11 -1 6 -4
18 -7 27 -5 14 6 16 90 16 53 0 96 -4 96 -9z m-155 -70 c3 -5 2 -12 -3 -15 -5
-3 -9 1 -9 9 0 17 3 19 12 6z m-382 -78 c-7 -2 -19 -2 -25 0 -7 3 -2 5 12 5
14 0 19 -2 13 -5z m34 -19 c-3 -3 -12 -4 -19 -1 -8 3 -5 6 6 6 11 1 17 -2 13
-5z m78 -4 c3 -5 1 -10 -4 -10 -6 0 -11 5 -11 10 0 6 2 10 4 10 3 0 8 -4 11
-10z m-38 -15 c0 -8 -6 -16 -14 -19 -15 -6 -13 15 2 26 6 4 10 8 11 8 0 0 1
-7 1 -15z m353 -63 c0 -4 -9 -8 -21 -9 -17 -2 -18 1 -9 12 12 14 30 12 30 -3z
m30 -3 c0 -5 -4 -9 -10 -9 -5 0 -10 7 -10 16 0 8 5 12 10 9 6 -3 10 -10 10
-16z m-462 -9 c10 0 23 -9 30 -20 12 -20 11 -20 -20 -7 -19 8 -34 22 -35 33
-2 10 0 13 3 7 3 -7 13 -13 22 -13z m612 15 c0 -2 -9 -9 -20 -15 -12 -6 -20
-7 -20 -1 0 5 8 12 18 14 9 3 18 5 20 6 1 0 2 -1 2 -4z m-505 -55 c-3 -5 -12
-10 -18 -10 -7 0 -6 4 3 10 19 12 23 12 15 0z m191 -20 c13 0 26 5 29 10 4 6
45 10 98 9 76 -2 87 -4 65 -13 -16 -5 -28 -13 -28 -17 0 -11 51 3 56 16 8 19
52 6 58 -17 5 -21 3 -21 -152 -14 -86 3 -172 9 -191 13 l-34 6 29 12 c17 7 33
9 39 4 5 -5 19 -9 31 -9z"/>
<path d="M2930 1460 c0 -5 6 -10 14 -10 8 0 18 5 21 10 3 6 -3 10 -14 10 -12
0 -21 -4 -21 -10z"/>
<path d="M3020 1454 c0 -8 5 -12 10 -9 6 3 10 10 10 16 0 5 -4 9 -10 9 -5 0
-10 -7 -10 -16z"/>
<path d="M2300 2801 c0 -5 4 -21 10 -36 7 -17 7 -24 0 -20 -6 3 -10 2 -10 -4
0 -6 -7 -8 -15 -5 -21 8 -19 -9 3 -22 29 -19 97 -114 141 -199 23 -44 50 -91
62 -105 l20 -25 -7 25 c-4 14 -29 69 -55 122 -35 69 -49 110 -49 138 0 27 -5
43 -15 46 -8 4 -15 14 -15 24 0 10 -7 23 -15 30 -11 9 -15 9 -15 1 0 -7 -5 -9
-10 -6 -6 4 -9 14 -8 22 2 9 -3 18 -9 20 -7 3 -13 0 -13 -6z"/>
<path d="M2340 2800 c0 -5 4 -10 9 -10 6 0 13 5 16 10 3 6 -1 10 -9 10 -9 0
-16 -4 -16 -10z"/>
<path d="M2285 2760 c3 -5 8 -10 11 -10 2 0 4 5 4 10 0 6 -5 10 -11 10 -5 0
-7 -4 -4 -10z"/>
<path d="M2380 2749 c0 -18 2 -19 15 -9 15 12 12 30 -6 30 -5 0 -9 -10 -9 -21z"/>
<path d="M260 2580 c0 -6 7 -13 15 -16 12 -5 12 -9 0 -28 -8 -13 -12 -26 -8
-30 4 -4 1 -11 -7 -17 -13 -8 -12 -12 5 -24 10 -8 34 -19 52 -24 18 -5 63 -31
100 -58 74 -53 199 -133 208 -133 11 0 -118 109 -168 143 -36 24 -54 47 -78
96 -21 45 -33 61 -41 53 -7 -7 -19 -2 -39 19 -30 31 -39 35 -39 19z"/>
<path d="M220 2572 c0 -10 22 -32 32 -32 12 0 -2 28 -18 34 -8 3 -14 2 -14 -2z"/>
<path d="M335 2570 c-3 -5 -1 -10 4 -10 6 0 11 5 11 10 0 6 -2 10 -4 10 -3 0
-8 -4 -11 -10z"/>
<path d="M222 2528 c5 -15 28 -23 28 -10 0 5 -7 13 -16 16 -10 4 -14 1 -12 -6z"/>
<path d="M225 2490 c-3 -5 -1 -10 4 -10 6 0 11 5 11 10 0 6 -2 10 -4 10 -3 0
-8 -4 -11 -10z"/>
<path d="M1887 1523 c18 -2 50 -2 70 0 21 2 7 4 -32 4 -38 0 -55 -2 -38 -4z"/>
<path d="M1868 1455 c-26 -14 -53 -33 -60 -43 -11 -16 -32 -20 -128 -26 -218
-12 -280 -19 -280 -28 0 -6 7 -8 15 -4 16 6 375 10 380 4 1 -2 5 -55 7 -118
l5 -115 -68 -70 c-96 -100 -191 -215 -186 -228 7 -21 61 -28 123 -16 49 9 69
18 95 45 18 19 37 34 41 34 4 0 8 -15 8 -34 0 -32 2 -34 43 -39 23 -3 62 -3
87 1 l45 7 3 68 c2 37 6 67 10 67 4 0 18 -20 31 -45 28 -53 68 -95 84 -90 7 2
34 6 61 9 26 2 53 9 60 16 8 8 -7 10 -64 8 l-74 -3 -48 70 c-46 68 -48 72 -48
143 0 47 4 71 10 67 6 -3 28 -32 50 -63 57 -81 140 -186 140 -177 0 9 -43 78
-127 202 l-63 93 0 86 0 86 258 -7 c160 -4 266 -3 282 3 25 10 24 10 -10 16
-53 10 -147 14 -345 15 l-181 1 -14 43 c-14 39 -18 42 -55 44 -27 2 -56 -6
-87 -22z m116 -1 c8 -22 -5 -587 -14 -597 -4 -5 -33 -11 -64 -14 l-56 -6 0 47
c0 42 6 55 56 119 l56 72 -5 68 c-6 92 -15 99 -70 54 l-45 -37 -7 121 c-8 137
-7 140 67 170 56 22 74 23 82 3z m-44 -316 l0 -73 -114 -117 -114 -118 -68 0
-68 0 37 38 c86 88 141 149 162 182 32 49 138 160 153 160 8 0 12 -22 12 -72z"/>
<path d="M1848 1080 c-41 -44 -47 -60 -22 -60 21 0 84 63 84 84 0 27 -21 18
-62 -24z m52 26 c0 -2 -8 -10 -17 -17 -16 -13 -17 -12 -4 4 13 16 21 21 21 13z"/>
<path d="M3436 1448 c-9 -35 -7 -86 3 -93 15 -9 31 29 31 74 0 45 -23 58 -34
19z"/>
<path d="M2868 1353 c6 -2 18 -2 25 0 6 3 1 5 -13 5 -14 0 -19 -2 -12 -5z"/>
<path d="M1031 1255 c-13 -14 -27 -25 -32 -25 -16 0 -183 -107 -208 -134 -31
-33 -22 -56 21 -56 18 0 44 -9 58 -20 32 -25 52 -25 67 -1 16 26 -1 39 -47 37
-19 -1 -50 1 -68 4 -32 5 -30 6 94 95 69 49 130 97 135 107 13 24 9 22 -20 -7z
m-125 -223 c-10 -2 -22 0 -28 6 -6 6 0 7 19 4 21 -5 23 -7 9 -10z"/>
<path d="M2523 936 c-11 -14 -30 -52 -43 -85 -12 -34 -26 -58 -31 -55 -12 7
-11 2 5 -37 14 -33 14 -34 20 -9 3 14 7 36 9 50 3 14 5 4 6 -21 1 -52 8 -64
28 -47 10 8 17 7 26 -6 9 -12 23 -17 42 -14 37 4 39 21 5 28 -14 3 -36 13 -49
22 -21 15 -23 21 -16 65 4 26 13 63 21 82 19 44 4 61 -23 27z"/>
<path d="M1173 907 c10 -27 19 -147 11 -147 -5 0 -18 7 -28 15 -22 17 -56 20
-56 6 0 -6 5 -13 10 -16 21 -13 9 -24 -17 -15 -49 15 -112 20 -118 10 -3 -5
-29 -10 -56 -10 -36 0 -49 -4 -47 -12 6 -16 95 -23 112 -9 9 7 16 7 24 -1 8
-8 15 -8 25 1 12 9 24 8 58 -4 63 -22 64 -22 63 3 l-1 22 23 -21 22 -21 11 20
c6 12 11 42 11 68 0 26 3 45 6 42 3 -3 5 -21 6 -39 0 -47 8 -71 21 -66 7 2 27
-1 44 -9 18 -7 35 -9 38 -4 3 5 13 6 21 3 14 -5 15 -3 5 15 -12 23 -31 30 -31
12 0 -12 -27 -13 -34 -2 -3 5 6 26 20 46 20 29 23 41 14 49 -8 9 -20 3 -46
-25 -25 -28 -34 -33 -34 -20 0 32 -48 122 -66 122 -9 0 -14 -6 -11 -13z"/>
<path d="M3193 877 c-22 -24 -47 -60 -54 -80 -13 -36 -13 -37 -33 -18 -22 20
-64 32 -67 18 0 -4 4 -21 11 -37 13 -32 30 -40 30 -15 0 13 3 13 21 3 14 -8
23 -9 25 -3 2 6 18 30 35 55 l30 45 -7 -37 c-3 -21 -3 -49 0 -64 6 -22 11 -25
34 -19 28 6 122 7 200 2 24 -2 46 1 49 6 10 17 -21 26 -66 20 -34 -5 -45 -3
-53 10 -11 21 -32 22 -48 2 -7 -9 -29 -15 -52 -15 l-39 0 7 38 c4 20 13 55 21
76 20 58 2 63 -44 13z"/>
<path d="M2383 828 c13 -24 24 -45 24 -48 0 -17 16 -50 24 -50 22 0 -1 106
-28 125 -36 28 -45 17 -20 -27z"/>
<path d="M550 854 c0 -3 8 -18 19 -32 10 -15 21 -36 25 -47 6 -20 1 -21 -80
-23 -149 -4 -136 -30 16 -33 102 -2 101 -2 86 51 -7 24 -6 24 8 6 8 -10 17
-23 18 -28 2 -5 16 -11 31 -12 21 -3 31 4 47 31 22 37 26 63 10 63 -13 0 -55
-41 -62 -61 -4 -10 -11 -7 -28 14 -44 55 -90 91 -90 71z"/>
<path d="M2316 821 c-8 -12 38 -100 52 -101 17 0 15 32 -3 56 -22 30 -18 36
13 17 24 -16 25 -16 14 -1 -15 19 -69 40 -76 29z"/>
</g>
</svg>
